<svg xmlns="http://www.w3.org/2000/svg" xmlns:xlink="http://www.w3.org/1999/xlink" width="758.125" height="484.698" viewBox="0 0 758.125 484.698">
  <defs>
    <clipPath id="clip-path">
      <path id="Path_323" data-name="Path 323" d="M3184.1,684.828q-17.086-.611-34.214-2c-.164.184-6.535-23.771,3.622-37.829,20.143-27.286,2.269-47.793-3.585-60.469-9.092-17.782-7.984-40.741,12.928-38.779,20.319,1.433,18.8-39.9,11.864-71.111-4.636-15.049,7.8-35.309,21.808-41.175,14.255-6.36,30.073,1.675,37.985,31.819,10.771,34.724-12.754,58.989-20.373,77.84-7.5,18.508,16.011,30.207.06,47.636-13.337,15.394-30.969,27.351-22.206,43.863C3200.916,650.919,3200.777,665.065,3184.1,684.828Z" transform="translate(-3144.502 -431.435)" fill="none"/>
    </clipPath>
    <linearGradient id="linear-gradient" x1="0.13" y1="0.378" x2="1.406" y2="0.662" gradientUnits="objectBoundingBox">
      <stop offset="0" stop-color="#ab316d"/>
      <stop offset="1" stop-color="#792d3d"/>
    </linearGradient>
    <linearGradient id="linear-gradient-2" y1="0.5" x2="1" y2="0.5" gradientUnits="objectBoundingBox">
      <stop offset="0" stop-color="#ffc444"/>
      <stop offset="0.996" stop-color="#f36f56"/>
    </linearGradient>
    <clipPath id="clip-path-2">
      <path id="Path_333" data-name="Path 333" d="M3297.992,761.477,3260.821,773.8c-3.91-4.544-9.894-13.334-2.91-18.305,9.709-6.911,3.5-26.012-1.75-31.729-6.5-7.076-21.3-23.864-6.456-34.784,12.355-9.092,22.186-12.434,17.089-30.591s.849-32.591,17.377-37.032c17.393-4.674,23.638-32.069,40.154-29.237,28.78,4.934,20.145,51.708-5.52,73.141s-5.1,26.311.663,40.629c7.865,19.547-20.509,24.455-24.959,34.7C3291.021,748.623,3294.937,756.735,3297.992,761.477Z" transform="translate(-3243.317 -591.917)" fill="none"/>
    </clipPath>
    <linearGradient id="linear-gradient-3" y1="0.5" x2="1" y2="0.5" gradientUnits="objectBoundingBox">
      <stop offset="0" stop-color="#ff9085"/>
      <stop offset="1" stop-color="#fb6fbb"/>
    </linearGradient>
    <linearGradient id="linear-gradient-5" y1="0.5" x2="1" y2="0.5" gradientUnits="objectBoundingBox">
      <stop offset="0" stop-color="#ff9500"/>
      <stop offset="0.118" stop-color="#f99605"/>
      <stop offset="1" stop-color="#00c0d6"/>
    </linearGradient>
    <clipPath id="clip-path-3">
      <path id="Path_383" data-name="Path 383" d="M2238.43,718.221q.368,11.1.737,22.192l55.879.372q-.461-14.112-.922-28.229c-15.007-7.148-23.31-6.491-28.136-4.493-5.429,2.247-8.458,7.021-17.565,9.209A36.961,36.961,0,0,1,2238.43,718.221Z" transform="translate(-2238.43 -706.721)" fill="none"/>
    </clipPath>
    <linearGradient id="linear-gradient-7" x1="0.5" y1="1" x2="0.5" y2="0" xlink:href="#linear-gradient-5"/>
    <clipPath id="clip-path-4">
      <path id="Path_411" data-name="Path 411" d="M2905.194,1021.864c5.218-3.675,9.461-4.4,12.457-4.331,3.79.088,5.048,1.439,9.133.926,4.163-.523,4.437-2.127,9.084-2.879a24.925,24.925,0,0,1,9.008.316c5.368,1.173,5.635,3.126,8.918,3,3.026-.12,3.2-1.8,9.115-4.438a26.253,26.253,0,0,1,8.877-2.713c3.794-.334,4.1.748,8.928.683a36.467,36.467,0,0,0,8.7-1.245c5.1-1.27,5.729-2.41,9.179-2.928a19.825,19.825,0,0,1,9.238.919q.39,13.046.78,26.087l-102.8,2.69Z" transform="translate(-2905.194 -1008.058)" fill="none"/>
    </clipPath>
    <clipPath id="clip-path-5">
      <path id="Path_430" data-name="Path 430" d="M1819.508,982.119h36.631s6.9-18.791-2.081-32.052c-18.316-27.057,6.66-41.21,16.234-48.7,14.438-11.3,22.234-27.555,1-34.631s.1-39.978,26.053-54.866c25.392-14.569,14.146-68.114-43.708-41.627-34.55,15.818-29.139,52.45-30.8,71.6s-30.143,20.733-20.4,44.124c8.326,19.981,24.144,34.55,12.072,48.287S1801.192,963.387,1819.508,982.119Z" transform="translate(-1800.414 -762.991)" fill="none"/>
    </clipPath>
    <linearGradient id="linear-gradient-23" x1="0.244" y1="0.137" x2="1.004" y2="1.839" xlink:href="#linear-gradient-3"/>
    <linearGradient id="linear-gradient-24" x1="0.181" y1="0.111" x2="1.18" y2="2.117" xlink:href="#linear-gradient-3"/>
    <linearGradient id="linear-gradient-25" x1="0.244" y1="-0.016" x2="1.004" y2="1.987" xlink:href="#linear-gradient-3"/>
    <linearGradient id="linear-gradient-26" x1="-43.603" y1="3.38" x2="-42.33" y2="3.38" gradientUnits="objectBoundingBox">
      <stop offset="0" stop-color="#40447e"/>
      <stop offset="0.996" stop-color="#3c3b6b"/>
    </linearGradient>
    <linearGradient id="linear-gradient-27" x1="5.592" y1="-12.572" x2="35.559" y2="17.525" xlink:href="#linear-gradient-2"/>
    <linearGradient id="linear-gradient-28" x1="-0.515" y1="0.432" x2="0.616" y2="2.006" gradientUnits="objectBoundingBox">
      <stop offset="0" stop-color="#311944"/>
      <stop offset="1" stop-color="#6b3976"/>
    </linearGradient>
    <linearGradient id="linear-gradient-29" x1="-3.197" y1="1.624" x2="0.782" y2="0.887" gradientUnits="objectBoundingBox">
      <stop offset="0" stop-color="#311944"/>
      <stop offset="1" stop-color="#893976"/>
    </linearGradient>
    <linearGradient id="linear-gradient-30" x1="-3.223" y1="3.1" x2="0.325" y2="1.363" xlink:href="#linear-gradient-2"/>
    <linearGradient id="linear-gradient-31" x1="-0.669" y1="1.724" x2="-1.009" y2="0.619" gradientUnits="objectBoundingBox">
      <stop offset="0.283" stop-color="#aa80f9"/>
      <stop offset="0.996" stop-color="#6165d7"/>
    </linearGradient>
    <linearGradient id="linear-gradient-32" x1="-3.613" y1="2.577" x2="-3.516" y2="0.748" xlink:href="#linear-gradient-2"/>
    <linearGradient id="linear-gradient-33" x1="-1.871" y1="1.962" x2="-1.384" y2="0.763" xlink:href="#linear-gradient-28"/>
    <linearGradient id="linear-gradient-34" x1="-2.041" y1="1.244" x2="-2.08" y2="4.477" xlink:href="#linear-gradient-2"/>
    <linearGradient id="linear-gradient-35" x1="-12.535" y1="3.24" x2="-9.125" y2="0.87" xlink:href="#linear-gradient-28"/>
    <linearGradient id="linear-gradient-36" x1="-6.777" y1="16.147" x2="-5.331" y2="6.308" xlink:href="#linear-gradient-28"/>
    <linearGradient id="linear-gradient-37" x1="-1.372" y1="1.135" x2="-0.318" y2="1.135" xlink:href="#linear-gradient-26"/>
    <linearGradient id="linear-gradient-38" x1="-17.878" y1="13.894" x2="-16.884" y2="13.894" xlink:href="#linear-gradient-26"/>
    <linearGradient id="linear-gradient-39" x1="-18.477" y1="5.882" x2="46.635" y2="65.105" xlink:href="#linear-gradient-2"/>
    <linearGradient id="linear-gradient-40" x1="-7.03" y1="2.686" x2="-1.834" y2="2.07" xlink:href="#linear-gradient-28"/>
    <linearGradient id="linear-gradient-41" x1="-1.357" y1="1.583" x2="0.226" y2="1.008" xlink:href="#linear-gradient-29"/>
    <linearGradient id="linear-gradient-42" x1="-1.197" y1="2.251" x2="0.052" y2="1.486" xlink:href="#linear-gradient-28"/>
    <linearGradient id="linear-gradient-43" x1="0.841" y1="0.696" x2="-0.404" y2="-0.245" xlink:href="#linear-gradient-2"/>
    <clipPath id="clip-path-6">
      <path id="Path_471" data-name="Path 471" d="M1698.162,1194.625h37.388s14.911-31.6,2-40.949-4.007-35.7-.89-50.3c8.457-39.614-35.285-41.7-28.486-93.47,1.808-13.77,9.861-39.426-.3-51.928-11.573-14.243-22.848-3.264-29.97-14.837-11.131-18.087-31.923-26.8-47-11.693-14.882,14.908-3.832,49.964,30.985,81.57,22.41,25.5,21.928,32.188,17.8,48.074-2.893,11.127-17.581,39.168-3.783,52.967s23.851,28.066,16.246,40.059C1680.581,1172.37,1698.162,1194.625,1698.162,1194.625Z" transform="translate(-1624.451 -923.723)" fill="none"/>
    </clipPath>
    <clipPath id="clip-path-7">
      <path id="Path_478" data-name="Path 478" d="M1663.371,1428.813H1699.2c2.087-5.072,4.753-14.429-2.744-16.736-10.423-3.207-10.531-21.583-7.617-28.061,3.608-8.017,11.625-26.858-4.409-32.069-13.349-4.338-22.849-4.41-23.651-21.647s-10.122-28.061-25.756-27.159c-16.452.949-29.764-21.046-43.294-13.83-23.574,12.573-2.606,50.71,25.856,61.934s12.005,21.383,11.124,35.477c-1.2,19.242,24.854,15.333,31.669,22.95C1665.723,1415.642,1664.659,1423.815,1663.371,1428.813Z" transform="translate(-1581.54 -1287.854)" fill="none"/>
    </clipPath>
    <linearGradient id="linear-gradient-44" x1="-0.255" y1="0.5" x2="1.022" y2="0.5" gradientUnits="objectBoundingBox">
      <stop offset="0" stop-color="#e3e7ef"/>
      <stop offset="1" stop-color="#fafbfd"/>
    </linearGradient>
    <linearGradient id="linear-gradient-45" x1="5.162" y1="0.133" x2="6.215" y2="0.133" xlink:href="#linear-gradient-5"/>
    <clipPath id="clip-path-8">
      <path id="Path_491" data-name="Path 491" d="M2721.97,764.837l-117.555-6.166a4.724,4.724,0,0,1-4.63-5.9l19.562-84.323a6.671,6.671,0,0,1,7.08-4.889l115.227,12.045a4.518,4.518,0,0,1,3.945,5.658L2728.289,759.9A6.411,6.411,0,0,1,2721.97,764.837Z" transform="translate(-2599.643 -663.529)" fill="none"/>
    </clipPath>
    <linearGradient id="linear-gradient-46" x1="0.548" y1="0.543" x2="-0.659" y2="1.216" xlink:href="#linear-gradient-2"/>
    <linearGradient id="linear-gradient-47" x1="0.28" y1="0.548" x2="-1.288" y2="1.481" xlink:href="#linear-gradient-2"/>
    <linearGradient id="linear-gradient-48" x1="-0.113" y1="-0.802" x2="1.065" y2="1.421" xlink:href="#linear-gradient-3"/>
    <linearGradient id="linear-gradient-49" x1="0.5" y1="1.152" x2="0.5" y2="-0.027" xlink:href="#linear-gradient-2"/>
    <linearGradient id="linear-gradient-50" x1="0.5" y1="0.734" x2="0.5" y2="-0.116" xlink:href="#linear-gradient-2"/>
    <linearGradient id="linear-gradient-51" x1="-3.75" y1="-1.079" x2="-2.83" y2="0.83" xlink:href="#linear-gradient-3"/>
    <linearGradient id="linear-gradient-52" x1="0" y1="0.5" x2="1" y2="0.5" xlink:href="#linear-gradient-29"/>
    <linearGradient id="linear-gradient-53" x1="-0.032" y1="0.129" x2="0.689" y2="0.731" xlink:href="#linear-gradient-29"/>
    <linearGradient id="linear-gradient-54" x1="0.252" y1="0.047" x2="0.972" y2="0.677" xlink:href="#linear-gradient-29"/>
    <linearGradient id="linear-gradient-55" x1="-0.325" y1="-0.38" x2="0.89" y2="0.962" xlink:href="#linear-gradient-3"/>
    <linearGradient id="linear-gradient-56" x1="-0.37" y1="-0.615" x2="0.817" y2="1.106" xlink:href="#linear-gradient-3"/>
    <linearGradient id="linear-gradient-57" x1="0.86" y1="0.292" x2="0.114" y2="1.155" xlink:href="#linear-gradient-2"/>
    <linearGradient id="linear-gradient-58" x1="0" y1="0.5" x2="1" y2="0.5" xlink:href="#linear-gradient-28"/>
    <linearGradient id="linear-gradient-59" x1="-47.474" y1="-7.866" x2="-50.907" y2="-2.147" xlink:href="#linear-gradient-2"/>
    <linearGradient id="linear-gradient-61" x1="0.125" y1="1.079" x2="0.802" y2="-0.165" xlink:href="#linear-gradient-2"/>
    <linearGradient id="linear-gradient-62" x1="0" y1="0.5" x2="1.668" y2="0.5" xlink:href="#linear-gradient-2"/>
    <linearGradient id="linear-gradient-63" y1="0.5" x2="1" y2="0.5" gradientUnits="objectBoundingBox">
      <stop offset="0" stop-color="#6e1f3f"/>
      <stop offset="1" stop-color="#792d3d"/>
    </linearGradient>
    <linearGradient id="linear-gradient-65" x1="0.287" y1="0.3" x2="1.372" y2="1.771" xlink:href="#linear-gradient-29"/>
    <linearGradient id="linear-gradient-66" x1="-1.528" y1="1.909" x2="-0.595" y2="1.909" xlink:href="#linear-gradient-29"/>
    <linearGradient id="linear-gradient-67" x1="-2.342" y1="1.568" x2="-1.687" y2="1.852" xlink:href="#linear-gradient-2"/>
    <linearGradient id="linear-gradient-68" x1="0.18" y1="0.437" x2="1.243" y2="1.17" xlink:href="#linear-gradient-2"/>
    <linearGradient id="linear-gradient-69" x1="0.393" y1="0.321" x2="0.94" y2="1.571" xlink:href="#linear-gradient-2"/>
    <linearGradient id="linear-gradient-71" x1="0.226" y1="0.278" x2="1.024" y2="0.84" xlink:href="#linear-gradient-2"/>
    <linearGradient id="linear-gradient-72" x1="-57.323" y1="6.834" x2="-57.239" y2="5.191" xlink:href="#linear-gradient-2"/>
    <linearGradient id="linear-gradient-73" x1="-0.01" y1="0.067" x2="0.936" y2="0.8" xlink:href="#linear-gradient"/>
    <linearGradient id="linear-gradient-74" x1="0.224" y1="0.442" x2="1.5" y2="1.423" xlink:href="#linear-gradient"/>
    <linearGradient id="linear-gradient-75" x1="-67.364" y1="4.63" x2="-67.41" y2="7.559" xlink:href="#linear-gradient-2"/>
    <linearGradient id="linear-gradient-76" x1="1.521" y1="1.478" x2="5.395" y2="3.606" xlink:href="#linear-gradient"/>
  </defs>
  <g id="Group_213" data-name="Group 213" transform="translate(-1581.541 -431.435)">
    <g id="Group_116" data-name="Group 116" transform="translate(2141.066 431.435)">
      <g id="Group_115" data-name="Group 115">
        <g id="Group_114" data-name="Group 114" clip-path="url(#clip-path)">
          <path id="Path_315" data-name="Path 315" d="M3184.187,684.828q-17.086-.611-34.214-2c-.164.184-6.535-23.771,3.623-37.829,20.143-27.286,2.269-47.793-3.585-60.469-9.02-17.776-7.58-38.266,11.264-40.654,20.855-3.058,20.814-38.133,13.528-69.237-4.637-15.049,7.8-35.309,21.808-41.175,14.254-6.36,30.072,1.675,37.985,31.819,10.771,34.724-12.754,58.989-20.373,77.84-7.5,18.508,16.011,30.207.06,47.636-13.337,15.394-30.97,27.351-22.207,43.863C3201,650.919,3200.864,665.065,3184.187,684.828Z" transform="translate(-3144.59 -431.435)" fill="#00c0d6"/>
          <g id="Group_113" data-name="Group 113" transform="translate(-1.288 -6.296)">
            <path id="Path_316" data-name="Path 316" d="M3211.938,676.708c-.126-.992,5.381-54.2,17.956-104.647,1.654-8.354,3.523-16.808,5.331-24.983,10.063-45.519,19.568-88.513-.72-132.9l.728-.333c20.4,44.628,10.867,87.749.774,133.4-1.806,8.171-3.675,16.621-5.332,24.984-12.892,51.716-17.94,104.08-17.94,104.405Z" transform="translate(-3186.507 -413.849)" fill="#beb8f2"/>
            <path id="Path_317" data-name="Path 317" d="M3301.5,564.469l-.65-.468c10.953-15.26,23.842-36.655,30.767-48.149,5.624-9.336,5.638-9.328,6.038-9.316l-.017.4.232.318c-.336.329-2.645,4.16-5.567,9.011C3325.374,527.769,3312.475,549.182,3301.5,564.469Z" transform="translate(-3243.592 -473.355)" fill="#beb8f2"/>
            <path id="Path_318" data-name="Path 318" d="M3252.363,542.551c-8.6-30.93-29.687-38.943-29.883-38.96l.028-.316-.32-.381c.2-.164.442-.105.722-.019,4.448,1.375,22.613,12.1,30.224,39.462Z" transform="translate(-3193.089 -470.949)" fill="#beb8f2"/>
            <path id="Path_319" data-name="Path 319" d="M3177.706,823.508l-.8-.007c.263-32.064-24.5-59.215-35.166-69.4a11.177,11.177,0,0,1-.835-.829l.642-.48c.055.068.375.374.746.729C3153.028,763.779,3177.972,791.131,3177.706,823.508Z" transform="translate(-3140.904 -631.454)" fill="#beb8f2"/>
            <path id="Path_320" data-name="Path 320" d="M3251.649,854.791l-.723-.344c11.023-23.178,39.16-27.894,39.626-27.894h0l-.06.4-.386.1.387-.1.018.4C3290.248,827.372,3262.489,832,3251.649,854.791Z" transform="translate(-3211.54 -678.809)" fill="#beb8f2"/>
            <path id="Path_321" data-name="Path 321" d="M3180.821,1065.486c-.474-6.443-3.985-17.132-18.013-31.469-.814-.832-.814-.832-.807-1.035l.4.013.338-.209c.05.065.324.346.642.671,14.2,14.509,17.754,25.394,18.239,31.969Z" transform="translate(-3154.448 -811.212)" fill="#beb8f2"/>
            <path id="Path_322" data-name="Path 322" d="M3219.58,1040.025l-.789-.137c2.057-11.856,17.142-22.026,25.95-27.032.277-.158.456-.259.519-.3l.443.668c-.07.045-.263.156-.566.329C3236.451,1018.489,3221.581,1028.492,3219.58,1040.025Z" transform="translate(-3190.908 -798.224)" fill="#beb8f2"/>
          </g>
        </g>
      </g>
    </g>
    <path id="Path_324" data-name="Path 324" d="M1922.519,1272.169c-.048-1.732-38.926-58.319,11.853-61.947,88.881-6.349,133.322-9.509,174.395-16.249,123.393-20.248,235.5-2.536,340.875-.231,19.834.434,62.617-3.1,85.208,23.8,12.135,14.451,17.278,35.922,13.17,54.713-3.808,17.419-15.546,32.439-105.6,80.491-47.78,25.5-70.509,39.628-104.785,44.656-25.929,3.8-40.366.79-47.334-1.087-32.292-8.7-49.245-32.074-62.768-46.522-53.918-57.6-149.831-76.414-208.293-74.549C1972.087,1276.744,1923.3,1300.369,1922.519,1272.169Z" transform="translate(-209.748 -483.393)" fill="#00c0d6" opacity="0.37"/>
    <path id="Path_325" data-name="Path 325" d="M2412.288,1172.005c22.818,8.236,47.672,19.238,46.522,28.8-1.257,10.451-32.473,9.943-81.229,22.892-77.656,20.625-81.318,43.919-120.367,40.614-44.952-3.8-44.121-35.016-97.475-43.568-20.065-3.217-48.822,1.055-106.336,9.6-38.768,5.759-69.072,12.308-87.136-5.169-.9-.869-9.977-9.653-9.47-15.777C1958.328,1190.874,2049.479,1173.209,2412.288,1172.005Z" transform="translate(-240.905 -475.453)" fill="#00c0d6" opacity="0.37"/>
    <g id="Group_121" data-name="Group 121" transform="translate(2176.44 488.886)">
      <path id="Path_326" data-name="Path 326" d="M3313.625,1120.261a4.367,4.367,0,0,1-2.228,3.693,39.16,39.16,0,0,1-21.99-.027,4.3,4.3,0,0,1-2.206-3.545l-7.7-56.1h40.589Z" transform="translate(-3266.549 -895.18)" fill="url(#linear-gradient)"/>
      <ellipse id="Ellipse_1" data-name="Ellipse 1" cx="20.33" cy="3.267" rx="20.33" ry="3.267" transform="translate(12.955 165.58)" fill="url(#linear-gradient-2)"/>
      <g id="Group_120" data-name="Group 120" transform="translate(0)">
        <path id="Path_327" data-name="Path 327" d="M3257.251,760c1.077.658,3.415,2.857,6.531,3.1,20.739,1.633,29.454-2.644,30.21-3.266.129-.106-.644-8.959-.521-9.07a17.288,17.288,0,0,1,1.038-10.176c4.45-10.245,32.824-15.153,24.959-34.7-5.762-14.318-26.327-19.2-.663-40.629s34.3-68.207,5.52-73.141c-16.516-2.832-22.761,24.564-40.154,29.237-16.529,4.442-22.474,18.875-17.377,37.032s-4.734,21.5-17.089,30.59c-14.842,10.921-.044,27.708,6.456,34.785C3261.4,729.465,3266.823,753.032,3257.251,760Z" transform="translate(-3243.317 -591.917)" fill="#00c0d6"/>
        <g id="Group_119" data-name="Group 119">
          <g id="Group_118" data-name="Group 118" clip-path="url(#clip-path-2)">
            <g id="Group_117" data-name="Group 117" transform="translate(-0.795 -0.039)">
              <path id="Path_328" data-name="Path 328" d="M3336.783,761.462c-7.78-61.533,14.342-126.541,57.732-169.654l.521.523c-43.232,42.956-65.272,107.727-57.521,169.039Z" transform="translate(-3301.541 -591.808)" fill="#fcfdfe"/>
              <path id="Path_329" data-name="Path 329" d="M3275.005,908.1c-7.785-23.141-33.648-34.5-33.909-34.611l.292-.678c.264.113,26.427,11.6,34.317,35.054Z" transform="translate(-3241.096 -772.218)" fill="#fcfdfe"/>
              <path id="Path_330" data-name="Path 330" d="M3337.146,958.61l-.728-.125c4.181-24.331,45.74-41.56,46.159-41.731l.28.684C3382.441,917.607,3341.258,934.681,3337.146,958.61Z" transform="translate(-3302.294 -800.426)" fill="#fcfdfe"/>
              <path id="Path_331" data-name="Path 331" d="M3335.993,727.145l-.735-.062c1.661-19.557-18.31-42.073-18.512-42.3l.549-.493C3317.5,684.52,3337.682,707.269,3335.993,727.145Z" transform="translate(-3289.665 -651.184)" fill="#fcfdfe"/>
              <path id="Path_332" data-name="Path 332" d="M3415.69,666.481l-.567-.473c14.3-17.142,44.28-20.415,44.581-20.446l.077.734C3459.481,646.328,3429.792,649.572,3415.69,666.481Z" transform="translate(-3352.823 -626.319)" fill="#fcfdfe"/>
            </g>
          </g>
        </g>
      </g>
    </g>
    <g id="Group_160" data-name="Group 160" transform="translate(1706.591 443.63)">
      <g id="Group_126" data-name="Group 126" transform="translate(190.579 63.96)">
        <path id="Path_334" data-name="Path 334" d="M2588.932,740.434l-117.088.591a5.819,5.819,0,0,1-5.907-5.492l-2.722-84.085a5.27,5.27,0,0,1,5.56-5.393l117.3,2.81a5.682,5.682,0,0,1,5.483,5.441l2.516,80.8A5.142,5.142,0,0,1,2588.932,740.434Z" transform="translate(-2463.211 -645.377)" fill="#d8dee8"/>
        <g id="Group_122" data-name="Group 122" transform="translate(2.092)">
          <path id="Path_335" data-name="Path 335" d="M2594.776,738.543l-117.088.591a5.819,5.819,0,0,1-5.908-5.492l-2.723-84.086a5.272,5.272,0,0,1,5.561-5.393l117.3,2.81a5.682,5.682,0,0,1,5.483,5.441l2.515,80.8A5.141,5.141,0,0,1,2594.776,738.543Z" transform="translate(-2469.055 -644.163)" fill="#f4f7fa"/>
          <path id="Path_336" data-name="Path 336" d="M2603.315,821.359l-129.083-.6.079,2.436,129.078.5Z" transform="translate(-2472.378 -757.539)" fill="#fff"/>
          <path id="Path_337" data-name="Path 337" d="M2685.545,647.333l2.028,64.143,2.413.01-2.026-64.094Z" transform="translate(-2608.043 -646.198)" fill="#fff"/>
        </g>
        <g id="Group_123" data-name="Group 123" transform="translate(19.67 73.054)">
          <path id="Path_338" data-name="Path 338" d="M2564.353,853.088l-45.664-.007a.4.4,0,0,1-.4-.374l-.132-4.1a.365.365,0,0,1,.375-.373l45.668.076a.388.388,0,0,1,.388.369l.128,4.046A.358.358,0,0,1,2564.353,853.088Z" transform="translate(-2518.157 -848.23)" fill="#c281e8"/>
          <path id="Path_339" data-name="Path 339" d="M2577.348,878.569l-57.829.154a.4.4,0,0,1-.4-.373l-.132-4.1a.366.366,0,0,1,.375-.374l57.834-.068a.384.384,0,0,1,.385.367l.127,4.03A.357.357,0,0,1,2577.348,878.569Z" transform="translate(-2518.691 -864.649)" fill="#d8dee8"/>
        </g>
        <g id="Group_124" data-name="Group 124" transform="translate(88.861 9.884)">
          <path id="Path_340" data-name="Path 340" d="M2746.838,686.048l-34.975-.6-.431-13.673,34.985.751Z" transform="translate(-2711.432 -671.773)" fill="#d8dee8"/>
          <path id="Path_341" data-name="Path 341" d="M2748.956,753.553,2714,753.313l-.854-27.08,34.971.537Z" transform="translate(-2712.534 -706.737)" fill="#d8dee8"/>
        </g>
        <g id="Group_125" data-name="Group 125" transform="translate(18.364 10.907)">
          <path id="Path_342" data-name="Path 342" d="M2577.013,687.177a10.4,10.4,0,0,1,10.236,9.83,9.14,9.14,0,0,1-.851,4.159l11.734,5.424a21,21,0,0,0,1.865-9.4c-.386-12.169-10.838-22.284-23.385-22.545h-.1l.4,12.54C2576.948,687.18,2576.979,687.176,2577.013,687.177Z" transform="translate(-2554.316 -674.637)" fill="#fff"/>
          <path id="Path_343" data-name="Path 343" d="M2546.588,701.161a9.442,9.442,0,0,1-8.764,5.391,10.4,10.4,0,0,1-10.3-9.829,9.3,9.3,0,0,1,9.58-9.548l-.4-12.54c-12.6-.211-22.583,9.6-22.187,21.906.4,12.34,11.073,22.45,23.707,22.54a21.663,21.663,0,0,0,20.1-12.5Z" transform="translate(-2514.507 -674.632)" fill="url(#linear-gradient-3)"/>
        </g>
      </g>
      <path id="Path_344" data-name="Path 344" d="M2418.222,735.483A9.775,9.775,0,0,1,2409.2,745.7l-447.894,22.04c-12.882.8-18.717-6.091-18.931-12.342l-8.308-244.066,1.6-22.573c-.214-6.288,2.643-18.124,9.525-17.842l456.476,18.721c5.153.212,9.486,4.813,9.645,10.226Z" transform="translate(-1932.916 -468.972)" fill="#d8dee8"/>
      <path id="Path_345" data-name="Path 345" d="M2409.993,522.652l-.745-25.4c-.159-5.413-4.492-10.014-3.9-12.122l-456.1-18.283c-16.017.657-18.587,9.949-18.373,16.237l1.126,25.637,8.569-1.486Z" transform="translate(-1930.853 -466.366)" fill="#f8924e"/>
      <path id="Path_346" data-name="Path 346" d="M2427.062,737.468a9.875,9.875,0,0,1-9.107,10.324l-458.561,20.763c-6.912.313-12.765-4.6-12.982-10.922l-8.443-246.762,2.464-28.857c-.218-6.355,2.6-9.773,9.548-9.488l460.307,16.468c5.2.214,9.579,4.865,9.741,10.335Z" transform="translate(-1935.422 -470)" fill="#fff"/>
      <path id="Path_347" data-name="Path 347" d="M2418.947,520.5l-.758-25.669c-.161-5.47-4.537-10.121-9.741-10.335l-461.073-18.982c-6.953-.286-12.485,4.679-12.267,11.035l1.02,29.823Z" transform="translate(-1933.581 -465.5)" fill="#00c0d6"/>
      <g id="Group_127" data-name="Group 127" transform="translate(20.712 15.928)">
        <path id="Path_348" data-name="Path 348" d="M2001.168,515.922c.106,3.145-2.587,5.6-6.023,5.487a6.507,6.507,0,0,1-6.433-5.924c-.108-3.157,2.6-5.614,6.046-5.487A6.507,6.507,0,0,1,2001.168,515.922Z" transform="translate(-1988.708 -509.993)" fill="#fff"/>
        <path id="Path_349" data-name="Path 349" d="M2076.193,518.625a5.443,5.443,0,0,1-5.929,5.446,6.426,6.426,0,0,1-6.334-5.876c-.106-3.132,2.562-5.571,5.952-5.446A6.424,6.424,0,0,1,2076.193,518.625Z" transform="translate(-2036.999 -511.76)" fill="#fff"/>
        <path id="Path_350" data-name="Path 350" d="M2150.059,521.287a5.379,5.379,0,0,1-5.839,5.406,6.346,6.346,0,0,1-6.236-5.829,5.38,5.38,0,0,1,5.861-5.406A6.345,6.345,0,0,1,2150.059,521.287Z" transform="translate(-2084.543 -513.499)" fill="#fff"/>
      </g>
      <g id="Group_159" data-name="Group 159" transform="translate(29.377 60.111)">
        <path id="Path_351" data-name="Path 351" d="M2471.521,739.237a6.567,6.567,0,0,1-6.615-6.207l-2.722-84.086a5.838,5.838,0,0,1,1.7-4.342,6.272,6.272,0,0,1,4.62-1.813l117.3,2.81a6.439,6.439,0,0,1,6.2,6.156l2.515,80.8a5.881,5.881,0,0,1-5.878,6.093l-117.088.592Zm-3.185-94.972a4.734,4.734,0,0,0-3.407,1.378,4.373,4.373,0,0,0-1.27,3.254l2.723,84.086a5.081,5.081,0,0,0,5.139,4.777h.027l117.088-.592a4.4,4.4,0,0,0,4.408-4.57l-2.515-80.8a4.943,4.943,0,0,0-4.763-4.726l-117.3-2.81Z" transform="translate(-2301.348 -639.431)" fill="#f4f7fa"/>
        <g id="Group_134" data-name="Group 134" transform="translate(307.054 7.327)">
          <path id="Path_352" data-name="Path 352" d="M2985.63,746.249l-107.114.541a5.424,5.424,0,0,1-5.4-5.249l-2.488-80.351a4.929,4.929,0,0,1,5.078-5.159l107.3,2.571a5.318,5.318,0,0,1,5.024,5.2l2.306,77.342A4.828,4.828,0,0,1,2985.63,746.249Z" transform="translate(-2870.63 -655.259)" fill="#d8dee8"/>
          <g id="Group_128" data-name="Group 128" transform="translate(1.908)">
            <path id="Path_353" data-name="Path 353" d="M2990.959,744.1l-107.114.541a5.424,5.424,0,0,1-5.4-5.249l-2.488-80.351a4.929,4.929,0,0,1,5.078-5.159l107.3,2.571a5.317,5.317,0,0,1,5.024,5.2L2995.671,739A4.828,4.828,0,0,1,2990.959,744.1Z" transform="translate(-2875.958 -653.88)" fill="#f4f7fa"/>
            <path id="Path_354" data-name="Path 354" d="M2880.661,822.514l.072,2.328,118.3.462-.067-2.24Z" transform="translate(-2878.977 -762.144)" fill="#fff"/>
          </g>
          <g id="Group_129" data-name="Group 129" transform="translate(17.324 69.813)">
            <path id="Path_355" data-name="Path 355" d="M2949.1,853.535l-29.588-.005a.369.369,0,0,1-.365-.357l-.121-3.924a.342.342,0,0,1,.343-.357l29.591.049a.364.364,0,0,1,.357.354l.119,3.885A.338.338,0,0,1,2949.1,853.535Z" transform="translate(-2919.021 -848.892)" fill="#ffc244"/>
            <path id="Path_356" data-name="Path 356" d="M2985.5,877.85l-65.236.174a.367.367,0,0,1-.364-.356l-.121-3.923a.343.343,0,0,1,.342-.358l65.241-.077a.357.357,0,0,1,.349.349l.116,3.84A.333.333,0,0,1,2985.5,877.85Z" transform="translate(-2919.509 -864.568)" fill="#d8dee8"/>
          </g>
          <g id="Group_133" data-name="Group 133" transform="translate(16.263 7.979)">
            <g id="Group_131" data-name="Group 131" transform="translate(1.945 6.549)">
              <path id="Path_357" data-name="Path 357" d="M2922.6,728.61a1.1,1.1,0,0,1-.549-.146,1.107,1.107,0,0,1-.411-1.511c7.614-13.314,16.325-20.516,25.888-21.406,6.047-.562,10.712,1.614,15.218,3.72,4.063,1.9,8.264,3.864,13.7,4.007,10.022.251,20.216-5.925,30.276-18.4a1.108,1.108,0,1,1,1.725,1.39c-10.517,13.04-21.284,19.521-32.059,19.223-5.9-.155-10.317-2.219-14.585-4.214-4.433-2.072-8.615-4.027-14.075-3.522-8.8.819-16.935,7.65-24.171,20.3A1.105,1.105,0,0,1,2922.6,728.61Z" transform="translate(-2921.491 -694.462)" fill="url(#linear-gradient-3)"/>
              <g id="Group_130" data-name="Group 130" transform="translate(51.473 14.946)">
                <path id="Path_358" data-name="Path 358" d="M3075.445,742.265a4.145,4.145,0,0,1-4.161,4.373,4.6,4.6,0,0,1-4.44-4.487,4.145,4.145,0,0,1,4.172-4.374A4.6,4.6,0,0,1,3075.445,742.265Z" transform="translate(-3066.28 -737.217)" fill="#fff"/>
                <path id="Path_359" data-name="Path 359" d="M3070.329,746.194h-.057a5.173,5.173,0,0,1-5-5.031,4.825,4.825,0,0,1,1.372-3.576,4.586,4.586,0,0,1,3.3-1.376h.073a5.177,5.177,0,0,1,4.98,5.031,4.834,4.834,0,0,1-1.369,3.571A4.586,4.586,0,0,1,3070.329,746.194Zm-.382-8.861a3.474,3.474,0,0,0-2.5,1.041,3.714,3.714,0,0,0-1.05,2.753,4.041,4.041,0,0,0,3.886,3.943,3.429,3.429,0,0,0,2.545-1.044,3.72,3.72,0,0,0,1.047-2.75,4.043,4.043,0,0,0-3.875-3.943Z" transform="translate(-3065.274 -736.211)" fill="#a67ff7"/>
              </g>
            </g>
            <g id="Group_132" data-name="Group 132">
              <path id="Path_360" data-name="Path 360" d="M2954.066,683.456l-37.807-.732-.2-6.556,37.811.812Z" transform="translate(-2916.057 -676.167)" fill="#d8dee8"/>
            </g>
            <path id="Path_361" data-name="Path 361" d="M3111.743,769.479l-14.885-.149-.148-4.9,14.887.172Z" transform="translate(-3032.037 -732.83)" fill="#c281e8"/>
          </g>
        </g>
        <g id="Group_138" data-name="Group 138" transform="translate(4.046 112.391)">
          <path id="Path_362" data-name="Path 362" d="M2162.035,1045.2l-128.342,4.893a6.027,6.027,0,0,1-6.487-5.539l-2.988-88.023a5.888,5.888,0,0,1,6.107-5.847l128.587-1.172a5.854,5.854,0,0,1,6,5.5l2.75,84.424A5.72,5.72,0,0,1,2162.035,1045.2Z" transform="translate(-2024.215 -948.741)" fill="#d8dee8"/>
          <g id="Group_135" data-name="Group 135" transform="translate(1.908)">
            <path id="Path_363" data-name="Path 363" d="M2167.363,1043.05l-128.341,4.893a6.027,6.027,0,0,1-6.487-5.539l-2.988-88.023a5.887,5.887,0,0,1,6.106-5.847l128.588-1.172a5.854,5.854,0,0,1,6,5.5l2.75,84.424A5.72,5.72,0,0,1,2167.363,1043.05Z" transform="translate(-2029.544 -947.361)" fill="#f4f7fa"/>
            <path id="Path_364" data-name="Path 364" d="M2176.468,1121.055,2035,1125.017l.087,2.551,141.46-4.068Z" transform="translate(-2033.047 -1058.874)" fill="#fff"/>
          </g>
          <g id="Group_136" data-name="Group 136" transform="translate(17.848 10.035)">
            <path id="Path_365" data-name="Path 365" d="M2188.733,1002.67l-113.708,2.318-.954-28.216,113.769-1.38Z" transform="translate(-2074.072 -975.392)" fill="#d8dee8"/>
            <path id="Path_366" data-name="Path 366" d="M2191.259,1075.935l-113.674,2.83-.336-9.954,113.7-2.5Z" transform="translate(-2076.112 -1033.764)" fill="#d8dee8"/>
          </g>
          <g id="Group_137" data-name="Group 137" transform="translate(19.733 74.779)">
            <path id="Path_367" data-name="Path 367" d="M2115.979,1161.273l-36.058,1.171a.41.41,0,0,1-.438-.378l-.146-4.3a.408.408,0,0,1,.412-.4l36.062-1.118a.4.4,0,0,1,.429.375l.142,4.251A.4.4,0,0,1,2115.979,1161.273Z" transform="translate(-2079.337 -1156.247)" fill="url(#linear-gradient-5)"/>
            <path id="Path_368" data-name="Path 368" d="M2150.36,1184.751l-69.528,2.456a.409.409,0,0,1-.438-.376l-.145-4.3a.409.409,0,0,1,.411-.406l69.535-2.352a.4.4,0,0,1,.42.369l.139,4.208A.4.4,0,0,1,2150.36,1184.751Z" transform="translate(-2079.923 -1171.353)" fill="#d8dee8"/>
          </g>
        </g>
        <g id="Group_146" data-name="Group 146">
          <g id="Group_139" data-name="Group 139">
            <path id="Path_369" data-name="Path 369" d="M2156.674,728.7a5.506,5.506,0,0,1-5.639,5.584l-128.622.65a6.283,6.283,0,0,1-6.5-5.76l-2.994-88.217c-.109-3.2,2.634-5.735,6.12-5.651l128.868,3.087a6.105,6.105,0,0,1,6.013,5.7Z" transform="translate(-2012.914 -634.626)" fill="#d8dee8"/>
            <path id="Path_370" data-name="Path 370" d="M2162.518,726.809a5.506,5.506,0,0,1-5.639,5.584l-128.622.65a6.283,6.283,0,0,1-6.5-5.76l-2.995-88.217c-.109-3.2,2.635-5.735,6.12-5.651L2153.75,636.5a6.1,6.1,0,0,1,6.012,5.7Z" transform="translate(-2016.666 -633.412)" fill="#f4f7fa"/>
            <path id="Path_371" data-name="Path 371" d="M2166.046,819.494l-141.772-.659.087,2.556,141.765.553Z" transform="translate(-2020.207 -752.456)" fill="#fff"/>
            <path id="Path_372" data-name="Path 372" d="M2208.4,635.814l2.249,67.564,2.676.011-2.245-67.511Z" transform="translate(-2138.42 -634.955)" fill="#fff"/>
          </g>
          <g id="Group_140" data-name="Group 140" transform="translate(18.006 8.75)">
            <path id="Path_373" data-name="Path 373" d="M2104.5,690.656l-40.2-.484-1.092-32.318,40.222.864Z" transform="translate(-2063.212 -657.855)" fill="#d8dee8"/>
            <path id="Path_374" data-name="Path 374" d="M2107.42,777.248l-40.183-.277-.385-11.4,40.192.411Z" transform="translate(-2065.549 -727.01)" fill="#d8dee8"/>
          </g>
          <g id="Group_141" data-name="Group 141" transform="translate(20.006 76.637)">
            <path id="Path_375" data-name="Path 375" d="M2089.174,852.58l-19.792,0a.427.427,0,0,1-.439-.392l-.146-4.307a.392.392,0,0,1,.412-.391l19.794.033a.423.423,0,0,1,.433.391l.144,4.281A.39.39,0,0,1,2089.174,852.58Z" transform="translate(-2068.797 -847.487)" fill="url(#linear-gradient-5)"/>
            <path id="Path_376" data-name="Path 376" d="M2118.873,879.425l-48.577.141a.426.426,0,0,1-.439-.391l-.146-4.306a.4.4,0,0,1,.412-.393l48.586-.025a.41.41,0,0,1,.418.382l.139,4.206A.381.381,0,0,1,2118.873,879.425Z" transform="translate(-2069.383 -864.799)" fill="#d8dee8"/>
          </g>
          <g id="Group_145" data-name="Group 145" transform="translate(80.732 10.172)">
            <path id="Path_377" data-name="Path 377" d="M2261.014,710.1l-11.191-.08-1.6-48.2,11.2.24Z" transform="translate(-2244.719 -661.827)" fill="#fff"/>
            <path id="Path_378" data-name="Path 378" d="M2313.185,710.957l-11.067-.079-1.58-47.928,11.077.238Z" transform="translate(-2278.304 -662.548)" fill="#fff"/>
            <path id="Path_379" data-name="Path 379" d="M2364.778,711.8l-10.945-.078-1.562-47.662,10.955.235Z" transform="translate(-2311.517 -663.261)" fill="#fff"/>
            <g id="Group_144" data-name="Group 144" transform="translate(0 16.071)">
              <g id="Group_143" data-name="Group 143" clip-path="url(#clip-path-3)">
                <g id="Group_142" data-name="Group 142" transform="translate(4.275 -4.544)">
                  <path id="Path_380" data-name="Path 380" d="M2262.391,751.659l-11.191-.08-.829-25.025,11.2.163Z" transform="translate(-2250.371 -714.91)" fill="url(#linear-gradient-7)"/>
                  <path id="Path_381" data-name="Path 381" d="M2313.843,730.909l-11.067-.079-1.213-36.8,11.075.2Z" transform="translate(-2283.236 -694.028)" fill="url(#linear-gradient-7)"/>
                  <path id="Path_382" data-name="Path 382" d="M2365.677,739.2l-10.945-.078-1.061-32.384,10.951.185Z" transform="translate(-2316.69 -702.187)" fill="url(#linear-gradient-7)"/>
                </g>
              </g>
            </g>
          </g>
        </g>
        <g id="Group_153" data-name="Group 153" transform="translate(310.263 109.806)">
          <path id="Path_384" data-name="Path 384" d="M2994.363,1029.768l-106.9,4.075a5.2,5.2,0,0,1-5.385-5.066l-2.483-80.19a5.118,5.118,0,0,1,5.067-5.322l107.088-.976a5.1,5.1,0,0,1,5.014,5.032l2.3,77.192A5.016,5.016,0,0,1,2994.363,1029.768Z" transform="translate(-2879.593 -941.52)" fill="#d8dee8"/>
          <g id="Group_147" data-name="Group 147" transform="translate(1.907)">
            <path id="Path_385" data-name="Path 385" d="M2999.691,1027.619l-106.9,4.075a5.2,5.2,0,0,1-5.385-5.066l-2.483-80.19a5.119,5.119,0,0,1,5.067-5.322l107.087-.976a5.1,5.1,0,0,1,5.015,5.033l2.3,77.192A5.017,5.017,0,0,1,2999.691,1027.619Z" transform="translate(-2884.921 -940.14)" fill="#f4f7fa"/>
            <path id="Path_386" data-name="Path 386" d="M2889.547,1102.248l.072,2.324,118.072-3.395-.067-2.236Z" transform="translate(-2887.891 -1042.092)" fill="#fff"/>
          </g>
          <g id="Group_148" data-name="Group 148" transform="translate(17.252 68.445)">
            <path id="Path_387" data-name="Path 387" d="M2948.4,1135.93l-20.125.654a.354.354,0,0,1-.364-.345l-.121-3.916a.355.355,0,0,1,.342-.368l20.127-.624a.351.351,0,0,1,.359.343l.119,3.89A.352.352,0,0,1,2948.4,1135.93Z" transform="translate(-2927.785 -1131.332)" fill="#ffc244"/>
            <path id="Path_388" data-name="Path 388" d="M2970.182,1158.335l-41.154,1.453a.353.353,0,0,1-.364-.344l-.121-3.916a.356.356,0,0,1,.342-.368l41.158-1.392a.346.346,0,0,1,.354.34l.118,3.863A.35.35,0,0,1,2970.182,1158.335Z" transform="translate(-2928.272 -1145.736)" fill="#d8dee8"/>
          </g>
          <g id="Group_152" data-name="Group 152" transform="translate(9.165 10.133)">
            <path id="Path_389" data-name="Path 389" d="M2924.241,1011.76l-6.223.158-1.243-40.271,6.229-.078Z" transform="translate(-2912.629 -970.451)" fill="#fff"/>
            <path id="Path_390" data-name="Path 390" d="M2950.07,1011.32l-6.187.157-1.235-40.152,6.192-.077Z" transform="translate(-2929.24 -970.245)" fill="#fff"/>
            <path id="Path_391" data-name="Path 391" d="M2975.746,1010.883l-6.15.156-1.228-40.033,6.155-.077Z" transform="translate(-2945.752 -970.04)" fill="#fff"/>
            <path id="Path_392" data-name="Path 392" d="M3001.27,1010.449l-6.114.155-1.221-39.915,6.119-.076Z" transform="translate(-2962.167 -969.836)" fill="#fff"/>
            <path id="Path_393" data-name="Path 393" d="M3026.644,1010.017l-6.078.154-1.214-39.8,6.083-.076Z" transform="translate(-2978.484 -969.634)" fill="#fff"/>
            <path id="Path_394" data-name="Path 394" d="M3051.87,1009.587l-6.043.153-1.206-39.681,6.047-.075Z" transform="translate(-2994.707 -969.433)" fill="#fff"/>
            <path id="Path_395" data-name="Path 395" d="M3076.947,1009.16l-6.007.152-1.2-39.565,6.012-.075Z" transform="translate(-3010.835 -969.233)" fill="#fff"/>
            <path id="Path_396" data-name="Path 396" d="M3101.879,1008.735l-5.972.152-1.193-39.45,5.977-.074Z" transform="translate(-3026.868 -969.034)" fill="#fff"/>
            <path id="Path_397" data-name="Path 397" d="M3126.666,1008.313l-5.938.151-1.186-39.335,5.942-.074Z" transform="translate(-3042.808 -968.836)" fill="#fff"/>
            <path id="Path_398" data-name="Path 398" d="M3151.309,1007.894l-5.9.15-1.179-39.221,5.908-.073Z" transform="translate(-3058.656 -968.64)" fill="#fff"/>
            <path id="Path_399" data-name="Path 399" d="M3175.81,1007.476l-5.869.149-1.172-39.108,5.874-.073Z" transform="translate(-3074.411 -968.444)" fill="#fff"/>
            <g id="Group_151" data-name="Group 151" transform="translate(0 14.181)">
              <g id="Group_150" data-name="Group 150" clip-path="url(#clip-path-4)">
                <g id="Group_149" data-name="Group 149" transform="translate(4.743 -4.987)">
                  <path id="Path_400" data-name="Path 400" d="M2925.313,1046.412l-6.224.158-.645-20.91,6.226-.116Z" transform="translate(-2918.444 -1014.297)" fill="url(#linear-gradient-7)"/>
                  <path id="Path_401" data-name="Path 401" d="M2950.584,1028l-6.187.157-.948-30.832,6.19-.1Z" transform="translate(-2934.497 -996.12)" fill="url(#linear-gradient-7)"/>
                  <path id="Path_402" data-name="Path 402" d="M2976.452,1033.85l-6.15.156-.834-27.2,6.154-.1Z" transform="translate(-2951.201 -1002.201)" fill="url(#linear-gradient-7)"/>
                  <path id="Path_403" data-name="Path 403" d="M3001.955,1032.807l-6.114.155-.839-27.423,6.117-.1Z" transform="translate(-2967.595 -1001.39)" fill="url(#linear-gradient-7)"/>
                  <path id="Path_404" data-name="Path 404" d="M3027.149,1026.55l-6.078.154-.932-30.56,6.082-.094Z" transform="translate(-2983.733 -995.363)" fill="url(#linear-gradient-7)"/>
                  <path id="Path_405" data-name="Path 405" d="M3052.563,1032.352l-6.042.153-.82-26.962,6.046-.1Z" transform="translate(-3000.144 -1001.392)" fill="url(#linear-gradient-7)"/>
                  <path id="Path_406" data-name="Path 406" d="M3077.515,1027.847l-6.007.152-.883-29.125,6.011-.1Z" transform="translate(-3016.145 -997.115)" fill="url(#linear-gradient-7)"/>
                  <path id="Path_407" data-name="Path 407" d="M3102.6,1032.567l-5.973.152-.79-26.135,5.976-.1Z" transform="translate(-3032.333 -1002.06)" fill="url(#linear-gradient-7)"/>
                  <path id="Path_408" data-name="Path 408" d="M3127.348,1030.88l-5.937.151-.806-26.727,5.941-.1Z" transform="translate(-3048.233 -1000.598)" fill="url(#linear-gradient-7)"/>
                  <path id="Path_409" data-name="Path 409" d="M3151.8,1024.188l-5.9.149-.905-30.117,5.906-.091Z" transform="translate(-3063.89 -994.129)" fill="url(#linear-gradient-7)"/>
                  <path id="Path_410" data-name="Path 410" d="M3176.391,1026.807l-5.869.149-.849-28.308,5.873-.094Z" transform="translate(-3079.735 -996.969)" fill="url(#linear-gradient-7)"/>
                </g>
              </g>
            </g>
          </g>
        </g>
        <g id="Group_158" data-name="Group 158" transform="translate(164.897 111.035)">
          <g id="Group_154" data-name="Group 154">
            <path id="Path_412" data-name="Path 412" d="M2598.993,1037.106l-116.845,4.454a5.583,5.583,0,0,1-5.9-5.291l-2.716-83.908a5.473,5.473,0,0,1,5.548-5.571l117.059-1.067a5.448,5.448,0,0,1,5.472,5.255l2.51,80.632A5.342,5.342,0,0,1,2598.993,1037.106Z" transform="translate(-2473.533 -944.954)" fill="#d8dee8"/>
            <path id="Path_413" data-name="Path 413" d="M2604.322,1034.958l-116.845,4.454a5.582,5.582,0,0,1-5.9-5.291l-2.717-83.908a5.473,5.473,0,0,1,5.549-5.571l117.058-1.067a5.448,5.448,0,0,1,5.472,5.255l2.51,80.632A5.342,5.342,0,0,1,2604.322,1034.958Z" transform="translate(-2476.954 -943.575)" fill="#f4f7fa"/>
            <path id="Path_414" data-name="Path 414" d="M2612.809,1109.521l-128.818,3.608.079,2.431,128.813-3.7Z" transform="translate(-2480.247 -1050.114)" fill="#fff"/>
          </g>
          <g id="Group_155" data-name="Group 155" transform="translate(19.405 71.075)">
            <path id="Path_415" data-name="Path 415" d="M2567.056,1146.9l-38.788,1.26a.379.379,0,0,1-.4-.36l-.132-4.1a.379.379,0,0,1,.374-.385l38.791-1.2a.373.373,0,0,1,.388.357l.129,4.046A.373.373,0,0,1,2567.056,1146.9Z" transform="translate(-2527.738 -1142.114)" fill="url(#linear-gradient-5)"/>
            <path id="Path_416" data-name="Path 416" d="M2598.97,1169.318l-69.873,2.468a.379.379,0,0,1-.4-.359l-.132-4.095a.38.38,0,0,1,.374-.386l69.88-2.364a.367.367,0,0,1,.381.353l.126,4.006A.369.369,0,0,1,2598.97,1169.318Z" transform="translate(-2528.271 -1156.538)" fill="#d8dee8"/>
          </g>
          <g id="Group_157" data-name="Group 157" transform="translate(14.106 9.793)">
            <path id="Path_417" data-name="Path 417" d="M2514.043,1011.477a1.108,1.108,0,0,1-1-1.59c4.079-8.427,8.806-13.016,14.052-13.639,3.234-.382,5.677.82,8.037,1.984,2.5,1.234,4.863,2.4,8.342,1.972a9.762,9.762,0,0,0,5.515-2.59,17.767,17.767,0,0,1,7.095-3.735,17.318,17.318,0,0,1,9.174.01,32.264,32.264,0,0,0,7.861.825,25.673,25.673,0,0,0,10.766-2.546,51.8,51.8,0,0,1,9.233-3.058,58.34,58.34,0,0,1,22.825-.342,1.108,1.108,0,0,1-.377,2.184,56.124,56.124,0,0,0-21.962.319,49.922,49.922,0,0,0-8.871,2.943,27.845,27.845,0,0,1-11.569,2.716,34.464,34.464,0,0,1-8.35-.871,15.3,15.3,0,0,0-8.154-.042,15.66,15.66,0,0,0-6.3,3.336,11.844,11.844,0,0,1-6.618,3.05c-4.135.5-7.034-.923-9.592-2.185-2.259-1.115-4.211-2.073-6.8-1.771-4.447.528-8.591,4.7-12.318,12.4A1.109,1.109,0,0,1,2514.043,1011.477Z" transform="translate(-2512.936 -981.768)" fill="url(#linear-gradient-3)"/>
            <g id="Group_156" data-name="Group 156" transform="translate(64.039 23.608)">
              <path id="Path_418" data-name="Path 418" d="M2732.1,1053.271l-39.758.988-.525-16.6,39.771-.782Z" transform="translate(-2691.821 -1036.876)" fill="#d8dee8"/>
            </g>
            <path id="Path_419" data-name="Path 419" d="M2543.528,975.746l-20.863.279a.388.388,0,0,1-.4-.368l-.132-4.1a.371.371,0,0,1,.375-.378l20.865-.248a.386.386,0,0,1,.393.367l.13,4.073A.368.368,0,0,1,2543.528,975.746Z" transform="translate(-2518.841 -970.93)" fill="#d8dee8"/>
          </g>
        </g>
      </g>
    </g>
    <g id="Group_192" data-name="Group 192" transform="translate(1581.541 550.129)">
      <path id="Path_420" data-name="Path 420" d="M1773.175,1539.954c-20.568.874-43.445,2.685-70.487,11.969-6.135,2.107-63.264,23.173-61.481,35.278,1.318,8.942,31.4,5,78.545,17.987,49.715,13.693,58.835,20.776,88,21.877,33.481,1.264,35.25-13.271,78.467-17.289,24.458-2.274,32.579,1.573,55.979,4.409,9.489,1.15,14.674,1.437,29.8,2.24,68.921,3.658,81.3,7.12,83.7,1.7,4.05-9.133-24.823-32.976-51.783-46.914-23.439-12.118-43.424-15.7-81.792-22.609C1856.2,1536.727,1807.309,1538.5,1773.175,1539.954Z" transform="translate(-1619.821 -1261.139)" fill="#00c0d6" opacity="0.37"/>
      <path id="Path_421" data-name="Path 421" d="M2010.578,1542c-174.514-44.1-184.435-35.021-187.267-30.407-5.166,8.414.6,23.721,11.231,37.637-9.36-1.959-18.488-2.114-26.122.835-15.8,6.1-36.092,1.184-36.555,5.722-.518,5.067,22.2,13.709,34.966,13.986,27.8.6,58.4,8.66,73.981,11.2,33.622,8.661,71.594-1.947,88.741-5.183,30.688-5.792,42.927-13.388,74.74-13.487,25.517-.08,44.29,4.591,44.651,2.942C2089.642,1562.048,2019.413,1544.23,2010.578,1542Z" transform="translate(-1703.725 -1241.008)" fill="#00c0d6" opacity="0.37"/>
      <g id="Group_163" data-name="Group 163" transform="translate(78.355 0)">
        <g id="Group_162" data-name="Group 162" clip-path="url(#clip-path-5)">
          <path id="Path_422" data-name="Path 422" d="M1819.508,982.119h36.631s6.9-18.791-2.081-32.052c-18.316-27.057,6.66-41.21,16.234-48.7,14.438-11.3,20.8-25.9,3.438-35.371-19.646-10.716-2.329-39.239,23.619-54.127,25.392-14.569,14.146-68.114-43.708-41.627-34.55,15.818-29.139,52.45-30.8,71.6s-30.143,20.733-20.4,44.124c8.326,19.981,24.144,34.55,12.072,48.287S1801.192,963.387,1819.508,982.119Z" transform="translate(-1800.414 -762.991)" fill="#00c0d6"/>
          <g id="Group_161" data-name="Group 161" transform="translate(0.463 1.108)">
            <path id="Path_423" data-name="Path 423" d="M1889.316,1005.281c-.087-.471-8.583-47.772-2.866-97.212,3.361-29.061,10.9-53.171,22.413-71.659,14.411-23.145,35.112-37.491,61.526-42.641l.153.786c-59.325,11.566-78.042,68.163-83.3,113.606-5.7,49.322,2.772,96.5,2.858,96.976Z" transform="translate(-1854.844 -783.859)" fill="#beb8f2"/>
            <path id="Path_424" data-name="Path 424" d="M1935.79,828.577c-3.2-25.694,6.572-62.125,6.671-62.49l.773.209c-.1.364-9.828,36.646-6.649,62.182Z" transform="translate(-1887.376 -766.087)" fill="#beb8f2"/>
            <path id="Path_425" data-name="Path 425" d="M1964.242,878.451l-.424-.679c26.356-16.421,51.015-8.516,51.261-8.435l-.252.76C2014.584,870.016,1990.266,862.237,1964.242,878.451Z" transform="translate(-1905.783 -831.108)" fill="#beb8f2"/>
            <path id="Path_426" data-name="Path 426" d="M1885.311,1120.993l-.779-.185c8.729-36.809,58.983-46.052,59.468-46.052l.024.8C1943.533,1075.6,1893.945,1084.589,1885.311,1120.993Z" transform="translate(-1854.881 -964.255)" fill="#beb8f2"/>
            <path id="Path_427" data-name="Path 427" d="M1831.87,1089.291c-4.8-23.085-29.911-39.013-30.164-39.171l.424-.679c.256.16,25.654,16.271,30.524,39.687Z" transform="translate(-1801.706 -948.003)" fill="#beb8f2"/>
            <path id="Path_428" data-name="Path 428" d="M1895.5,1316.336l-.8-.063c1.15-14.617,21.137-25.7,21.989-26.169l.384.7C1916.867,1290.918,1896.613,1302.152,1895.5,1316.336Z" transform="translate(-1861.408 -1102.511)" fill="#beb8f2"/>
            <path id="Path_429" data-name="Path 429" d="M1845.025,1280.518c-1.841-10.781-18.418-23-23.865-27.013a18.033,18.033,0,0,1-1.676-1.292l.6-.532c.1.113.775.607,1.551,1.18,5.511,4.062,22.284,16.424,24.18,27.524Z" transform="translate(-1813.12 -1077.842)" fill="#beb8f2"/>
          </g>
        </g>
      </g>
      <g id="Group_167" data-name="Group 167" transform="translate(107.926 148.516)">
        <g id="Group_166" data-name="Group 166">
          <path id="Path_431" data-name="Path 431" d="M1952.691,1190.3s-24.606-42.607-57.883,29.85c-25.912,56.42-9.165,119.189,50.782,136.412s153.576-17.561,124.187-42.075C2007.437,1262.484,1960.123,1216.393,1952.691,1190.3Z" transform="translate(-1883.019 -1177.853)" fill="url(#linear-gradient-23)"/>
          <g id="Group_164" data-name="Group 164" transform="translate(37.266 0.008)" opacity="0.35" style="mix-blend-mode: multiply;isolation: isolate">
            <path id="Path_432" data-name="Path 432" d="M1990.953,1228.707c-1.639,5.2-4.455,19.755-3.716,36.661.659,15.082-.71,22.967,23.285,33.937,8.224,3.76,13.913,15.692,26.505,22.79,5.709,3.218,27.217,14.861,54.992,10.156a81.324,81.324,0,0,0,41.277-20.526c-60.693-50.86-106.475-95.783-113.774-121.413,0,0-8.99-15.555-23.449-11.873a33.819,33.819,0,0,1,8.5,17.818C2006.189,1207.543,1996.332,1211.654,1990.953,1228.707Z" transform="translate(-1987.116 -1177.875)" fill="url(#linear-gradient-24)"/>
          </g>
          <g id="Group_165" data-name="Group 165" transform="translate(0 27.533)" opacity="0.13" style="mix-blend-mode: multiply;isolation: isolate">
            <path id="Path_433" data-name="Path 433" d="M2041.538,1388.8c-28.351,15.655-75.7,25.21-110.976-.991-32.662-24.259-35.572-64.888-36.661-77.286a120.464,120.464,0,0,1,8.435-55.758c-2.453,4.288-4.964,9.181-7.527,14.762-25.912,56.42-9.165,119.189,50.782,136.412,59.007,16.953,150.647-16.482,125.48-40.914A111.489,111.489,0,0,1,2041.538,1388.8Z" transform="translate(-1883.019 -1254.763)" fill="url(#linear-gradient-25)"/>
          </g>
        </g>
        <path id="Path_434" data-name="Path 434" d="M2035.97,1360.882q-1.258,0-2.538-.029c-21.916-.489-52.684-7.769-74.808-39.667-18.687-26.944-16.187-57.348-10.8-78.111a150,150,0,0,1,16.313-38.952.476.476,0,0,1,.8.515,149.032,149.032,0,0,0-16.2,38.7c-5.332,20.561-7.809,50.663,10.667,77.3,21.887,31.559,52.329,38.767,74.013,39.258a123.522,123.522,0,0,0,42.323-6.58.477.477,0,1,1,.342.89A124.4,124.4,0,0,1,2035.97,1360.882Z" transform="translate(-1922.115 -1194.578)" fill="#ffa6a4"/>
      </g>
      <g id="Group_180" data-name="Group 180" transform="translate(153.653 153.017)">
        <g id="Group_171" data-name="Group 171" transform="translate(51.176 98.444)">
          <g id="Group_168" data-name="Group 168" transform="translate(127.842 37.349)">
            <path id="Path_435" data-name="Path 435" d="M2525.586,1591.639c-1.562-1.682-4.362-8.923.744-10.411,5.135-1.5,7.989-3.39,15.059-9.058s8.887-.8-1.1,8.4S2527.808,1594.031,2525.586,1591.639Z" transform="translate(-2518.895 -1569.746)" fill="url(#linear-gradient-26)"/>
            <path id="Path_436" data-name="Path 436" d="M2510.815,1594.025l4.206,3.672a2.636,2.636,0,0,0,3.143.242,1.712,1.712,0,0,0,.2-2.748l-6.148-5.261Z" transform="translate(-2510.815 -1582.705)" fill="url(#linear-gradient-27)"/>
          </g>
          <g id="Group_170" data-name="Group 170">
            <path id="Path_437" data-name="Path 437" d="M2155.572,1478.723c-7.432,6.51,8.081,27.86,32.862,20.94,30.03-8.386,68.221-4.617,93.967,16.344,1.493-1.328,5.193-3.413,3.5-5.124-23.257-23.517-44.8-37.018-62.641-40.641C2196.286,1464.765,2176.732,1460.186,2155.572,1478.723Z" transform="translate(-2153.704 -1465.416)" fill="url(#linear-gradient-28)"/>
            <g id="Group_169" data-name="Group 169" transform="translate(0)" opacity="0.24" style="mix-blend-mode: multiply;isolation: isolate">
              <path id="Path_438" data-name="Path 438" d="M2242.694,1487.664c4.356,2.534,5.285-2.615,7.532-6-9.647-5.923-18.706-9.745-26.965-11.422-26.974-5.477-46.529-10.056-67.688,8.481-7.432,6.51,8.08,27.86,32.862,20.94a115.548,115.548,0,0,1,28.525-4.1C2224.9,1490.572,2231.393,1479.118,2242.694,1487.664Z" transform="translate(-2153.704 -1465.415)" fill="#552d63"/>
            </g>
          </g>
        </g>
        <g id="Group_172" data-name="Group 172" transform="translate(35.372 100.279)">
          <path id="Path_439" data-name="Path 439" d="M2122.844,1504.254l-1.525.583s-9.867-9.316-11.625-11.69c-2.146-2.9,22.017-10.282,29.863-19.946,8.245-10.154,1.731,12.055,1.731,12.055Z" transform="translate(-2109.559 -1470.543)" fill="url(#linear-gradient-29)"/>
        </g>
        <g id="Group_175" data-name="Group 175" transform="translate(0 40.466)">
          <path id="Path_440" data-name="Path 440" d="M2121.674,1309.392s8.76,1.2,18.365,18.233c7.222,12.806,22.9,23.415,22.9,23.415l1.61,10.077-13.013,2.286-4.655-3.065-12.7-27.018Z" transform="translate(-2081.965 -1307.269)" fill="#00c0d6"/>
          <g id="Group_174" data-name="Group 174" transform="translate(0.652)">
            <path id="Path_441" data-name="Path 441" d="M2034.645,1304.5s-21.593,2.663-22.056,27.509c-.428,22.929,7.844,31.813,28.144,50.931,2.041,1.922,5.351,1.923,5.6,2.2q1.978,2.231,4.006,4.657a103.8,103.8,0,0,1,38.651-23.339s-18.945-39.193-27.269-52.184C2053.134,1300.879,2040.189,1303.166,2034.645,1304.5Z" transform="translate(-2012.573 -1303.461)" fill="#00c0d6"/>
            <g id="Group_173" data-name="Group 173" transform="translate(0 23.91)" opacity="0.2" style="mix-blend-mode: multiply;isolation: isolate">
              <path id="Path_442" data-name="Path 442" d="M2070.5,1405.259c-9.115,4.877-22.033,4.325-26.784-1.71-3.578-4.545-4.157-6.239-8.513-13.376-3.5-5.742-5.209-6.663-12.865-11.5a38.574,38.574,0,0,1-9.383-8.423,38.5,38.5,0,0,0-.362,4.636c-.428,22.929,7.844,31.812,28.144,50.931,2.041,1.922,5.351,1.923,5.6,2.2q1.978,2.231,4.006,4.658a103.8,103.8,0,0,1,38.651-23.339s-3.144-6.164-7.308-14.832C2078.658,1399.566,2076.343,1402.13,2070.5,1405.259Z" transform="translate(-2012.573 -1370.252)" fill="#00c0d6"/>
            </g>
          </g>
          <path id="Path_443" data-name="Path 443" d="M2132.784,1450.546a19.914,19.914,0,0,0,7-.982c2.906-1.171,2.667-1.44,6.012-1.864,3.252-.413,9.657-2.343,6.031-5.641-4.036-3.671-10.955-2.642-12.943-.2a16.529,16.529,0,0,1-5.237,3.841Z" transform="translate(-2089.097 -1390.899)" fill="url(#linear-gradient-30)"/>
          <path id="Path_444" data-name="Path 444" d="M2017.938,1340.7s-11.993,1.4-4.995,40.014c3.629,20.029,21.57,17.21,43.233,8.934,1.467-3.068-.421-9.571-.421-9.571s-26.915,11.1-27.612-5.093C2027.364,1356.834,2024.935,1338.783,2017.938,1340.7Z" transform="translate(-2010.751 -1327.279)" fill="url(#linear-gradient-31)"/>
          <path id="Path_445" data-name="Path 445" d="M2069.04,1315.019c-5.148,0-10.374-3.808-10.624-3.993a.238.238,0,1,1,.283-.384c.068.051,6.911,5.031,12.436,3.653a4.389,4.389,0,0,0,3.1-2.209c1.015-2.07-.136-4.742-.148-4.768a.238.238,0,0,1,.436-.192c.052.117,1.253,2.9.142,5.167a4.841,4.841,0,0,1-3.411,2.465A9.1,9.1,0,0,1,2069.04,1315.019Z" transform="translate(-2041.289 -1305.724)" fill="#9f73f8"/>
          <path id="Path_446" data-name="Path 446" d="M2109.153,1489.751a.238.238,0,0,1-.159-.415c.193-.174,19.532-17.485,36.994-21.754a.242.242,0,0,1,.288.175.238.238,0,0,1-.175.288c-17.345,4.241-36.595,21.472-36.787,21.645A.236.236,0,0,1,2109.153,1489.751Z" transform="translate(-2073.772 -1408.824)" fill="#ae87f9"/>
        </g>
        <g id="Group_176" data-name="Group 176" transform="translate(11.03)">
          <path id="Path_447" data-name="Path 447" d="M2058.189,1264.406s3.063,12.388,2.45,14.922,3.012,5.288,9.365,5.57-.684-12.726-.684-12.726Z" transform="translate(-2052.237 -1237.922)" fill="url(#linear-gradient-32)"/>
          <path id="Path_448" data-name="Path 448" d="M2069.121,1206.781c3.957-6.538-1.072-15.949-9.29-12.686-5.606,2.225-9.161.65-12.871,2.02-6.609,2.44-5.892,7.138-4.367,11.918,1.327,9.477,1.276,13.215,11.415,18.755C2057.875,1213.369,2064.294,1214.757,2069.121,1206.781Z" transform="translate(-2041.563 -1192.353)" fill="url(#linear-gradient-33)"/>
          <path id="Path_449" data-name="Path 449" d="M2052.9,1248.36s4.081,6.751,12.257,6.25,5.85-19.29,3.794-20.358c-2.384-1.239-5.724.352-11.158-.511-2.288-.364-4.4-3.039-5.375.03-1.109,3.491-.287,8.777-.287,8.777s-2.52-2.183-3.8.136C2047.3,1244.555,2049.007,1246.956,2052.9,1248.36Z" transform="translate(-2045.721 -1217.319)" fill="url(#linear-gradient-34)"/>
          <path id="Path_450" data-name="Path 450" d="M2055.927,1225.147s-.391,11.206,2.386,14.678c1.262,2.18-.376,2.229-1.757.621s-2.876-6.749-2.876-6.749Z" transform="translate(-2049.343 -1212.717)" fill="url(#linear-gradient-35)"/>
          <path id="Path_451" data-name="Path 451" d="M2064.137,1194.461l-.053,0a.224.224,0,0,1-.026-.447h.016c.369-.023,7.5-.5,9.045-3.47a.224.224,0,1,1,.4.207C2071.878,1193.9,2064.876,1194.416,2064.137,1194.461Z" transform="translate(-2055.87 -1190.426)" fill="url(#linear-gradient-36)"/>
        </g>
        <g id="Group_177" data-name="Group 177" transform="translate(46.134 68.447)">
          <path id="Path_452" data-name="Path 452" d="M2140.049,1474.582a.52.52,0,0,0-.427.358c-.008.027.069,1.006.066,1.036a.492.492,0,0,0,.338.509l18.361,5.964,34.313-13.438-16.3,1.247Z" transform="translate(-2139.621 -1437.728)" fill="#26264f"/>
          <path id="Path_453" data-name="Path 453" d="M2140.04,1472.51a.491.491,0,0,0-.081.953l18.361,5.964,34.313-13.438-16.3,1.247Z" transform="translate(-2139.619 -1435.788)" fill="#444b8c"/>
          <path id="Path_454" data-name="Path 454" d="M2189.588,1425l2.735-35.794a1.241,1.241,0,0,1,1.045-1.131l41.092-6.432a1.24,1.24,0,0,1,1.431,1.283l-1.542,33.363a1.241,1.241,0,0,1-1.013,1.162l-42.689,7.9Z" transform="translate(-2171.7 -1381.625)" fill="url(#linear-gradient-37)"/>
          <path id="Path_455" data-name="Path 455" d="M2192.042,1427.353l2.821-36.583a1.241,1.241,0,0,1,1.045-1.13l41.092-6.432a1.241,1.241,0,0,1,1.431,1.283l-1.543,33.367a1.24,1.24,0,0,1-1.007,1.161Z" transform="translate(-2173.275 -1382.632)" fill="#26264f"/>
          <path id="Path_456" data-name="Path 456" d="M2192.042,1471.473l43.839-8.334a1.241,1.241,0,0,0,1.007-1.161l.465-10.063c-13.059,7.417-29.426,8.359-44.677,11.335Z" transform="translate(-2173.275 -1426.752)" fill="#1f1f44"/>
        </g>
        <g id="Group_179" data-name="Group 179" transform="translate(44.385 95.292)">
          <path id="Path_457" data-name="Path 457" d="M2398.311,1471.31c-.6-2.081-1.924-4.38,2.8-6.058,3.432-1.218,9.394-1.609,14.813-1.887,7.594-.39,9.34,4.153-1.758,7.044C2406.9,1472.3,2399.163,1474.27,2398.311,1471.31Z" transform="translate(-2303.544 -1460.933)" fill="url(#linear-gradient-38)"/>
          <path id="Path_458" data-name="Path 458" d="M2409.265,1473.1a2.019,2.019,0,0,1-1.638,2.217c-2.247.321-1.825-.836-1.9-2s-.98-1.973,1.638-2.217A1.945,1.945,0,0,1,2409.265,1473.1Z" transform="translate(-2308.582 -1465.912)" fill="url(#linear-gradient-39)"/>
          <path id="Path_459" data-name="Path 459" d="M2351.576,1457.368l2.218-.35s4.32.4,16.227,3.687c2.549.423,6.024,7.863-1.444,8.154s-16.559,5.854-16.559,5.854Z" transform="translate(-2273.948 -1456.873)" fill="url(#linear-gradient-40)"/>
          <path id="Path_460" data-name="Path 460" d="M2134.816,1491.721s1.087,9.654,23.535,8.775,62.549-24.181,62.3-36.409-15.175-7.343-30.625-.275c-13.041,5.966-33.186,9.421-37.314,10.062C2147.423,1474.693,2133.539,1487.083,2134.816,1491.721Z" transform="translate(-2134.734 -1456.613)" fill="url(#linear-gradient-41)"/>
          <g id="Group_178" data-name="Group 178" transform="translate(10.764 0.084)" opacity="0.2" style="mix-blend-mode: multiply;isolation: isolate">
            <path id="Path_461" data-name="Path 461" d="M2183.491,1479.773c10.39-1.058,12.723-8.515,25.653-10.671,8.378-1.4,11.337,1.078,15.608-1.783,3.372-2.258,5.093-6.2,5.921-10.472-5.73.486-13.464,3.508-21.348,7.115-12.667,5.794-32.033,9.22-36.918,10-.145.023-3.42-1.148-3.42-1.148s-2.438,1.393-4.186,2.493C2171.613,1478.957,2179.7,1480.159,2183.491,1479.773Z" transform="translate(-2164.802 -1456.847)" fill="url(#linear-gradient-42)"/>
          </g>
        </g>
      </g>
      <g id="Group_191" data-name="Group 191" transform="translate(0 57.54)">
        <g id="Group_190" data-name="Group 190">
          <g id="Group_189" data-name="Group 189">
            <g id="Group_184" data-name="Group 184" transform="translate(15.362)">
              <path id="Path_462" data-name="Path 462" d="M1692.154,1154.121c-6.653,10.491-3.2,22.322.538,30.471a11.441,11.441,0,0,1,2.846.984c9.962,3.865,20.659,5.811,31.023,7.952,2.23.461,4.419.568,6.683.861l2.307.236s14.911-31.6,2-40.949-4.007-35.7-.89-50.3c8.457-39.614-35.285-41.7-28.486-93.47,1.809-13.77,9.861-39.426-.3-51.928-11.573-14.243-22.848-3.264-29.97-14.837-11.131-18.087-31.923-26.8-47-11.693-14.882,14.908-3.832,49.964,30.985,81.57,22.409,25.5,21.928,32.188,17.8,48.074-2.893,11.127-17.581,39.168-3.783,52.967S1699.759,1142.128,1692.154,1154.121Z" transform="translate(-1624.451 -923.723)" fill="url(#linear-gradient-43)"/>
              <g id="Group_183" data-name="Group 183">
                <g id="Group_182" data-name="Group 182" clip-path="url(#clip-path-6)">
                  <g id="Group_181" data-name="Group 181" transform="translate(-5.305 -8.136)">
                    <path id="Path_463" data-name="Path 463" d="M1706.632,1176.064l-.8-.006c.035-4.615.013-9.276-.066-13.851a485.578,485.578,0,0,0-11.054-96.758,390.293,390.293,0,0,0-23.7-72.883,326,326,0,0,0-27.918-50.778,260.722,260.722,0,0,0-23.251-29.709c-1.394-1.527-2.914-3.018-4.383-4.46-1.983-1.946-4.033-3.958-5.828-6.1l.618-.516c1.77,2.117,3.805,4.115,5.774,6.047,1.477,1.45,3,2.949,4.414,4.492a261.593,261.593,0,0,1,23.323,29.8,326.731,326.731,0,0,1,27.987,50.9,390.967,390.967,0,0,1,23.745,73.033,486.372,486.372,0,0,1,11.074,96.918C1706.645,1166.775,1706.667,1171.442,1706.632,1176.064Z" transform="translate(-1609.632 -900.997)" fill="#fcfdfe"/>
                    <path id="Path_464" data-name="Path 464" d="M1806.749,1080.209c-10.161-32.031,9.568-85.922,9.769-86.462l.754.28c-.2.538-19.834,54.172-9.755,85.939Z" transform="translate(-1734.317 -960.543)" fill="#fcfdfe"/>
                    <path id="Path_465" data-name="Path 465" d="M1793.13,1410.383c-4.255-22.037-41.9-43.723-42.282-43.94l.4-.7c.383.218,38.349,22.087,42.675,44.486Z" transform="translate(-1700.294 -1199.37)" fill="#fcfdfe"/>
                    <path id="Path_466" data-name="Path 466" d="M1872.734,1420.927c-.194-15.04,7.542-35.6,21.783-57.89.31-.486.578-.906.617-.986l.306.151h.467c0,.151,0,.151-.714,1.268-14.157,22.161-21.848,42.563-21.655,57.448Z" transform="translate(-1778.543 -1196.998)" fill="#fcfdfe"/>
                    <path id="Path_467" data-name="Path 467" d="M1829.259,1601.11c-4.781-15.284-27.058-24.064-27.283-24.151l.29-.75c.228.088,22.863,9,27.76,24.661Z" transform="translate(-1733.119 -1334.49)" fill="#fcfdfe"/>
                    <path id="Path_468" data-name="Path 468" d="M1880.3,1605.915l-.754-.28c4.637-12.522,13.009-24.112,25.594-35.431l.538.6C1893.187,1582.031,1884.886,1593.517,1880.3,1605.915Z" transform="translate(-1782.916 -1330.634)" fill="#fcfdfe"/>
                    <path id="Path_469" data-name="Path 469" d="M1700.554,957.922c-6.622-17.439-9.529-37.261-10.484-43.775-.166-1.132-.3-2.026-.343-2.171l.763-.253c.063.188.145.74.375,2.307.953,6.492,3.85,26.248,10.441,43.606Z" transform="translate(-1661.054 -907.884)" fill="#fcfdfe"/>
                    <path id="Path_470" data-name="Path 470" d="M1678.724,1081.849c-10.495-13.473-45.832-17.739-46.188-17.78l.094-.8c1.466.171,36.029,4.349,46.729,18.085Z" transform="translate(-1624.336 -1005.178)" fill="#fcfdfe"/>
                  </g>
                </g>
              </g>
            </g>
            <g id="Group_188" data-name="Group 188" transform="translate(0 130.355)">
              <path id="Path_472" data-name="Path 472" d="M1664.213,1418.21c.139.061.275.127.417.182,10.021,3.866,20.659,5.81,31.023,7.952,1.4.289,2.8.531,4.212.744,1.872-5.234,3.305-12.947-3.406-15.012-10.423-3.207-10.531-21.583-7.617-28.061,3.608-8.017,11.625-26.858-4.409-32.069-13.349-4.338-22.849-4.41-23.651-21.647s-10.122-28.061-25.756-27.159c-16.452.949-29.764-21.046-43.294-13.83-23.574,12.573-2.606,50.71,25.856,61.934s12.005,21.383,11.124,35.477c-1.2,19.242,24.854,15.333,31.669,22.95A15.814,15.814,0,0,1,1664.213,1418.21Z" transform="translate(-1581.54 -1287.854)" fill="#00c0d6"/>
              <g id="Group_187" data-name="Group 187">
                <g id="Group_186" data-name="Group 186" clip-path="url(#clip-path-7)">
                  <g id="Group_185" data-name="Group 185" transform="translate(-6.131 4.403)">
                    <path id="Path_473" data-name="Path 473" d="M1680.391,1431.076c-10.919-55.463-48.7-105.353-98.6-130.2l.359-.719c50.116,24.958,88.062,75.065,99.028,130.766Z" transform="translate(-1575.572 -1300.154)" fill="#fcfdfe"/>
                    <path id="Path_474" data-name="Path 474" d="M1834.053,1510.064l-.8,0c.1-22.667,19.536-40.2,19.733-40.374l.534.6C1853.321,1470.46,1834.151,1487.762,1834.053,1510.064Z" transform="translate(-1737.008 -1408.996)" fill="#fcfdfe"/>
                    <path id="Path_475" data-name="Path 475" d="M1758.436,1595.51c-10.448-19.571-51.095-22.535-51.5-22.563l.055-.8c.413.028,41.5,3.027,52.159,22.986Z" transform="translate(-1655.912 -1474.775)" fill="#fcfdfe"/>
                    <path id="Path_476" data-name="Path 476" d="M1752.43,1370.659c-7.2-16.8,3.788-42.4,3.9-42.654l.737.322c-.11.253-10.96,25.534-3.9,42.015Z" transform="translate(-1683.553 -1318.035)" fill="#fcfdfe"/>
                    <path id="Path_477" data-name="Path 477" d="M1608.646,1360.738c-17.1-10.616-43.79-4.886-44.058-4.827l-.173-.785c.27-.061,27.28-5.856,44.655,4.928Z" transform="translate(-1564.415 -1334.414)" fill="#fcfdfe"/>
                  </g>
                </g>
              </g>
            </g>
          </g>
        </g>
        <path id="Path_479" data-name="Path 479" d="M1852.48,1659.351l.265,1.3c-22.541-.158-49.823-11.022-50.088-11.131-.2-.08.268-1.485.349-1.681a.382.382,0,0,1,.5-.209c.263.108,26.586,10.8,48.977,10.952a.384.384,0,0,1,0,.767Z" transform="translate(-1723.469 -1388.46)" fill="#5a2f71"/>
      </g>
    </g>
    <g id="Group_203" data-name="Group 203" transform="translate(1944.407 512.718)">
      <g id="Group_199" data-name="Group 199" transform="translate(0 0)">
        <path id="Path_480" data-name="Path 480" d="M2717.625,761.216l-117.689-6.145a4.77,4.77,0,0,1-4.631-5.981l19.664-85.6a6.7,6.7,0,0,1,7.094-4.969l115.351,12.116a4.569,4.569,0,0,1,3.944,5.739l-17.4,79.825A6.449,6.449,0,0,1,2717.625,761.216Z" transform="translate(-2595.162 -658.487)" fill="#d8dee8"/>
        <g id="Group_193" data-name="Group 193" transform="translate(1.604 1.805)">
          <path id="Path_481" data-name="Path 481" d="M2721.97,764.837l-117.555-6.166a4.724,4.724,0,0,1-4.63-5.9l19.562-84.323a6.671,6.671,0,0,1,7.08-4.889l115.227,12.045a4.518,4.518,0,0,1,3.945,5.658L2728.289,759.9A6.411,6.411,0,0,1,2721.97,764.837Z" transform="translate(-2599.643 -663.529)" fill="url(#linear-gradient-44)"/>
          <path id="Path_482" data-name="Path 482" d="M2743.978,847.772l-127.859-8.947-.569,2.451,127.925,8.78Z" transform="translate(-2609.856 -776.071)" fill="#fff"/>
          <path id="Path_483" data-name="Path 483" d="M2848.873,684.505l-14.014,62.39,2.388.164,13.981-62.308Z" transform="translate(-2750.654 -676.996)" fill="#fff"/>
        </g>
        <g id="Group_194" data-name="Group 194" transform="translate(18.196 75.48)">
          <path id="Path_484" data-name="Path 484" d="M2698.519,877.062l-46.232-2.857a.321.321,0,0,1-.31-.4l.951-4.124a.476.476,0,0,1,.482-.35l46.184,2.977a.31.31,0,0,1,.293.39l-.91,4.021A.456.456,0,0,1,2698.519,877.062Z" transform="translate(-2649.828 -869.331)" fill="#c281e8"/>
          <path id="Path_485" data-name="Path 485" d="M2704.812,903.432l-58.5-3.319a.319.319,0,0,1-.31-.4l.952-4.131a.479.479,0,0,1,.483-.352l58.441,3.471a.306.306,0,0,1,.29.386l-.9,4A.456.456,0,0,1,2704.812,903.432Z" transform="translate(-2645.991 -885.958)" fill="#d8dee8"/>
        </g>
        <g id="Group_195" data-name="Group 195" transform="translate(96.644 17.963)">
          <path id="Path_486" data-name="Path 486" d="M2919.19,725.144l-33.878-3.129,2.989-13.352,33.78,3.38Z" transform="translate(-2878.085 -708.663)" fill="#d8dee8"/>
          <path id="Path_487" data-name="Path 487" d="M2899.24,790.975l-34.115-2.519,5.951-26.582L2905,764.9Z" transform="translate(-2865.125 -742.825)" fill="#d8dee8"/>
        </g>
        <g id="Group_196" data-name="Group 196" transform="translate(30.112 15.126)">
          <path id="Path_488" data-name="Path 488" d="M2751.5,713.429a8.412,8.412,0,0,1,7.73,10.452,10.615,10.615,0,0,1-1.921,4.043l10.338,6.181a24.327,24.327,0,0,0,4.256-9.127c2.71-11.98-5.107-22.7-17.575-23.932l-.1-.007-2.828,12.385C2751.438,713.427,2751.47,713.426,2751.5,713.429Z" transform="translate(-2725.584 -700.932)" fill="#fff"/>
          <path id="Path_489" data-name="Path 489" d="M2711.006,727.731a11.865,11.865,0,0,1-10.195,4.708,8.415,8.415,0,0,1-7.836-10.478,11.747,11.747,0,0,1,12.122-8.729l2.828-12.385c-12.609-1.195-25.265,7.729-28.088,19.977-2.837,12.308,5.366,23.123,18.13,24.071a27.261,27.261,0,0,0,23.376-10.981Z" transform="translate(-2679.276 -700.739)" fill="url(#linear-gradient-45)"/>
        </g>
        <g id="Group_198" data-name="Group 198" transform="translate(1.604 1.805)">
          <g id="Group_197" data-name="Group 197" clip-path="url(#clip-path-8)">
            <path id="Path_490" data-name="Path 490" d="M2622.951,784.632c-1.616,1.454,4.231,14.157,14.769,24.122,10.679,10.1,18.718,10.331,27.076,22.338,4.039,5.8,2.581,6.351,5.723,10.523,12.3,16.341,44.726,21.281,57.783,8.677,1.365-1.318,4.417-7.156,10.523-18.83a138.821,138.821,0,0,0,6.954-15.815c2.687-7.279,4.168-11.386,2.708-12.554-2.987-2.387-13.322,10.618-20.184,7.63-4.34-1.89-2.133-9-7.877-14.03-4.642-4.069-10.972-3.868-12.615-3.815-14.319.455-15.93,16.232-29.353,19.2-11.16,2.468-22.97-5.581-40.245-17.354C2628.992,788.44,2624.134,783.566,2622.951,784.632Z" transform="translate(-2614.436 -741.184)" fill="#d8dee8" opacity="0.47" style="mix-blend-mode: multiply;isolation: isolate"/>
          </g>
        </g>
      </g>
      <g id="Group_202" data-name="Group 202" transform="translate(8.257 37.577)">
        <path id="Path_492" data-name="Path 492" d="M2622.428,776.421l-2.954-2.954a7.519,7.519,0,0,1-.739-6.923c1.477-4.061,3.508-2.954,3.508-2.954l-.554,2.861a5.6,5.6,0,0,0,1.385,4.154,14.95,14.95,0,0,1,1.846,4.892Z" transform="translate(-2618.228 -763.453)" fill="url(#linear-gradient-46)"/>
        <path id="Path_493" data-name="Path 493" d="M2972.583,816.593l3.323-3.015,1.477-5.477s4.062,1.6,1.846,6.769c-1.416,1.723-4.892,4.307-6.369,6.831S2972.583,816.593,2972.583,816.593Z" transform="translate(-2845.432 -792.117)" fill="url(#linear-gradient-47)"/>
        <path id="Path_494" data-name="Path 494" d="M2865.406,866.794s15.938-9.846,19.814-13.354c4.042-3.657,14.677-17.723,15.6-19.384s-2.861-4.984-2.861-4.984-18.523,23.138-41.784,16.307C2859.867,853.687,2865.406,866.794,2865.406,866.794Z" transform="translate(-2770.992 -805.581)" fill="url(#linear-gradient-48)"/>
        <path id="Path_495" data-name="Path 495" d="M2888.406,1312.924s2.923,7.354,2.154,10.615a32.845,32.845,0,0,0,5.169-.461,35.528,35.528,0,0,1-1.507-5.016,49.281,49.281,0,0,1-.308-5.877Z" transform="translate(-2791.685 -1115.745)" fill="url(#linear-gradient-49)"/>
        <path id="Path_496" data-name="Path 496" d="M2781.615,1362.228a2.307,2.307,0,0,1,.552,1.351,2.188,2.188,0,0,1-.166.905c-.5,1.312-1.281,1.484-2.126,2.876-.516.85-.418,1.107-.891,1.49a3.1,3.1,0,0,1-2.031.542,36.12,36.12,0,0,1-4.7-.265q1.573-2.028,3.352-4.112.78-.912,1.557-1.782l3.084-1.042Z" transform="translate(-2717.117 -1147.849)" fill="#26264f"/>
        <path id="Path_497" data-name="Path 497" d="M2780.726,1320.463s-1.763,9.2.481,11.775c1.911,2.576-.923.739-.923.739l-3.385,2.954-2.031,3.508s1.87-9,1.371-12.577-.748-5.983-.748-5.983Z" transform="translate(-2718.792 -1121.059)" fill="url(#linear-gradient-50)"/>
        <path id="Path_498" data-name="Path 498" d="M2692.951,820.818c-8.582-1.447-20.871,2.9-35.076-4.615-13.977-7.392-22.234-18.3-27.046-25.292l-6.272,3.1c3.552,6.131,11.919,19.268,23.006,28.415,13.958,11.514,27.612,12.187,35.05,21.59C2686.11,840.552,2697.139,821.525,2692.951,820.818Z" transform="translate(-2622.291 -781.081)" fill="url(#linear-gradient-51)"/>
        <path id="Path_499" data-name="Path 499" d="M2764.168,1036.126s-4.736,4.238-4.736,21.687,2.243,55.341,2.243,55.341l3.59,27.128a23.735,23.735,0,0,0,6.215-.615c2.244-10.221,5.9-27.509,4.155-41.968-.748-15.7,6.232-35.4,6.232-35.4s5.983,19.943,10.221,29.914,12.306,41.209,13.054,43.452c4.959.45,7.077-.861,7.077-.861s-3.179-33.617-6.171-46.33-2.742-43.375-7.728-52.1C2787.1,1031.888,2764.168,1036.126,2764.168,1036.126Z" transform="translate(-2708.882 -937.348)" fill="url(#linear-gradient-52)"/>
        <path id="Path_500" data-name="Path 500" d="M2764.168,1036.126s-4.737,4.238-4.737,21.687,2.243,55.341,2.243,55.341l3.59,27.128a23.735,23.735,0,0,0,6.215-.615c2.244-10.221,5.9-27.509,4.155-41.968-.748-15.7,6.232-35.4,6.232-35.4s5.983,19.943,10.22,29.914,12.306,41.209,13.054,43.452c4.958.45,7.076-.861,7.076-.861s-3.179-33.617-6.171-46.33-2.742-43.375-7.728-52.1C2787.1,1031.888,2764.168,1036.126,2764.168,1036.126Z" transform="translate(-2708.882 -937.348)" fill="url(#linear-gradient-53)"/>
        <path id="Path_501" data-name="Path 501" d="M2788.773,1068.1c1.477,9.6,4.431,14.769,11.815,21.415,5.908,4.431,1.477,14.03,3.692,21.415.738,2.215,2.954,4.43,3.692,6.646,2.748,5.5.181,12.218,1.427,18.037a7.9,7.9,0,0,0,2.819-.807s-3.179-33.616-6.171-46.33-2.742-43.375-7.728-52.1c-11.218-4.487-34.152-.249-34.152-.249s-4.737,4.238-4.737,21.687c0,1.416.015,2.968.042,4.622,4.917,4.352,14.974,5.319,21.176.495a2.927,2.927,0,0,1,1.185-.537l.033-.092s.01.034.026.086C2784.716,1061.872,2788.132,1065.537,2788.773,1068.1Z" transform="translate(-2708.882 -937.348)" opacity="0.25" fill="url(#linear-gradient-54)" style="mix-blend-mode: multiply;isolation: isolate"/>
        <g id="Group_200" data-name="Group 200" transform="translate(97.434 205.135)">
          <path id="Path_502" data-name="Path 502" d="M2891.069,1351.7s-.729,0-.668.941-.328,4.178,3.375,4.33,4.274-.262,4.4-.262a30.4,30.4,0,0,0-.972-3.1l-1.184-1.518-3.187-.334Z" transform="translate(-2890.398 -1346.246)" fill="#26264f"/>
          <path id="Path_503" data-name="Path 503" d="M2899.505,1345.171a11.753,11.753,0,0,0-.956-3c-.654-1.471-.117-2.022-.742-3.361a3.991,3.991,0,0,0-.882-1.338,3.826,3.826,0,0,0-2.615-1,2.653,2.653,0,0,0-1.231.289,2.873,2.873,0,0,0-1.108,1.169,12.983,12.983,0,0,0-.892,2.646,6.562,6.562,0,0,0-.233.9,6.479,6.479,0,0,0-.1.808c.971,0,4.7.152,5.494.729a3.092,3.092,0,0,1,1.184,2.52c0,.971.486,1.427.971,1.4A1.593,1.593,0,0,0,2899.505,1345.171Z" transform="translate(-2890.623 -1336.472)" fill="#444b8c"/>
        </g>
        <path id="Path_504" data-name="Path 504" d="M2777.849,1349.746c.834.013,1.447.677,1.908,2.277s2.677,3.016.092,2.677-4.461,3.323-5.384,4.677-3.4,2.557-3.34,1.234,1.155-1.941,1.463-3.295S2775.946,1349.716,2777.849,1349.746Z" transform="translate(-2716.388 -1139.858)" fill="#444b8c"/>
        <path id="Path_505" data-name="Path 505" d="M2787.779,872.54c-4.185-.123-14.834-1.286-19.815,3.692-5.094,5.09.064,11.2-.854,19.59-.623,5.687-.4,9.039-1.479,18.338a57.615,57.615,0,0,1-1.18,6.591c-1.422,6.062-3.9,17.98-5.226,20.957a49.655,49.655,0,0,0,28.335,4.161,44.213,44.213,0,0,0,14.126-4.653c-3.4-10.283-2.761-24.368-1.5-29.439,2.482-10.013,3.043-13.944,10.058-28.344,1.934-3.97-2.659-1.747-5.6-5.231C2800.129,872.857,2792,872.665,2787.779,872.54Z" transform="translate(-2708.75 -833.357)" fill="url(#linear-gradient-55)"/>
        <path id="Path_506" data-name="Path 506" d="M2741.813,911.392a15.662,15.662,0,0,0-1.108-8.769,13.494,13.494,0,0,0-2.954-4.061c-3.712-3.408-8.5-3.182-13.968-3.574a85.028,85.028,0,0,1-16.793-2.967c10.5,6.586,20.281,8.619,26.689,14.866-.013.516-.047,1.04-.105,1.574-.623,5.687-.4,9.039-1.479,18.338a57.62,57.62,0,0,1-1.18,6.591c-1.422,6.062-3.9,17.98-5.226,20.957a49.656,49.656,0,0,0,28.335,4.161,44.218,44.218,0,0,0,14.126-4.653,50.178,50.178,0,0,1-2.079-10.117,42.5,42.5,0,0,1-19.09-4.467c-4.056-2.056-6.083-3.083-7.292-5.353C2737.369,929.557,2740.188,925.5,2741.813,911.392Z" transform="translate(-2675.215 -845.993)" opacity="0.25" fill="url(#linear-gradient-56)" style="mix-blend-mode: multiply;isolation: isolate"/>
        <g id="Group_201" data-name="Group 201" transform="translate(69.551 10.478)">
          <path id="Path_507" data-name="Path 507" d="M2815.9,817.278c.606-4.675,4.3-7.67,5.108-8.311,3.376-2.683,4.063-2.954,5.223-3.174l1.583-.24s.085,0,.173.007a15.766,15.766,0,0,1,4.211,1.5c1.614,1.135.426,9.172-4.467,19.167q-.289,1.269-.577,2.539c4.264.75,5.32,1.519,5.353,2.133.073,1.33-4.6,3.028-8.922,3.138-5.426.139-11.187-2.2-11.077-3.938.044-.705,1.068-1.575,5.008-2.429l1.847-2.6C2818.807,824.391,2815.456,820.721,2815.9,817.278Z" transform="translate(-2812.51 -800.96)" fill="url(#linear-gradient-57)"/>
          <path id="Path_508" data-name="Path 508" d="M2840.3,794.266a7.357,7.357,0,0,0-1.616,6.637c.3,1.246.69,1.377.635,2.193-.156,2.292-4.33,3.29-4.1,4.444.166.825,2.338.523,2.713,1.558.41,1.134-1.976,2.11-3,4.963-.16.445-1.13,3.144.115,4.733,1.163,1.482,3.763,1.131,6.695.75a23.471,23.471,0,0,0,6.233-1.674,15.483,15.483,0,0,0,6.348-4.271,13.009,13.009,0,0,0,2.886-8.542,13.44,13.44,0,0,0-10.676-12.177C2845.684,792.746,2842.391,792.227,2840.3,794.266Z" transform="translate(-2826.58 -792.722)" fill="url(#linear-gradient-58)"/>
          <path id="Path_509" data-name="Path 509" d="M2836.2,833.053c1.23-.736,2.168.847,1.588,2.23s-2.528,2.249-3.709,1.424S2834.546,834.044,2836.2,833.053Z" transform="translate(-2826.101 -818.495)" fill="url(#linear-gradient-59)"/>
        </g>
        <path id="Path_510" data-name="Path 510" d="M2806.067,871.766l3-.923s.785,4.061,10.431,4.569a14.413,14.413,0,0,0,8.815-3l2.308,1.062s-4.755,6.05-11.907,5.908A14.351,14.351,0,0,1,2806.067,871.766Z" transform="translate(-2738.823 -832.398)" fill="#00c0d6"/>
      </g>
    </g>
    <g id="Group_212" data-name="Group 212" transform="translate(2143.208 611.058)">
      <path id="Path_511" data-name="Path 511" d="M3151.3,1470.694c4.393,6.558,27.219-.121,41.994-7.3,23.865-11.6,22.95-22.682,42.908-32.409,28.858-14.065,57.218-3.789,58.427-9.814.794-3.962-10.891-11.273-23.28-13.694-14.392-2.812-21.32,2.621-54.775,13.009-27.017,8.39-29.74,7.1-38.927,13.123C3160.734,1444.7,3146.942,1464.191,3151.3,1470.694Z" transform="translate(-3150.486 -1237.212)" fill="#00c0d6" opacity="0.37"/>
      <path id="Path_512" data-name="Path 512" d="M3531.851,1343.045a3.7,3.7,0,0,1,3.709-.97c2.416.731,2.4,5.427,2.967,10.442.647,5.69,1.578,11.727-.97,11.7-1.134-.013-3.185-3.469-3.595-6.676a32.248,32.248,0,0,0-1.911-7.388,20.2,20.2,0,0,1-.546-3.156C3531.321,1345,3531.216,1343.86,3531.851,1343.045Z" transform="translate(-3395.014 -1195.606)" fill="#26264f"/>
      <path id="Path_513" data-name="Path 513" d="M3525.14,1348.815c0,2.458-4.142,3.452-6.646,3.452s-2.425-.994-2.425-3.452.091-4.251,2.6-4.251S3525.14,1346.357,3525.14,1348.815Z" transform="translate(-3385.193 -1197.295)" fill="url(#linear-gradient-2)"/>
      <path id="Path_514" data-name="Path 514" d="M3229.11,1470.3l-4.082,16.172a3.815,3.815,0,0,0,2.44,1.935,4.18,4.18,0,0,0,3.3-1.168c1.06-7.634,2.915-12.459,4.734-15.629,1.277-2.226,2.531-3.624,2.434-4.419C3237.758,1465.752,3233.351,1467.9,3229.11,1470.3Z" transform="translate(-3198.343 -1275.725)" fill="url(#linear-gradient-61)"/>
      <path id="Path_515" data-name="Path 515" d="M3184.816,1203.518l-2.493.369a42.3,42.3,0,0,0-7.019.277c-2.586.462-4.063,1.755-4.063,4.433s3.268,3.007,6.095,3.324c1.72.193,4.065-1.258,5.851-2.6a17.924,17.924,0,0,1,4.466-1.786Z" transform="translate(-3163.811 -1106.742)" fill="url(#linear-gradient-62)"/>
      <path id="Path_516" data-name="Path 516" d="M3251.944,951.255c-3.147,2.1-3.725,8.123-2.889,11.765a26.724,26.724,0,0,0,2.845,7.245c.627,1.6,1.172,3.109,1.608,4.457.32.989.544,1.774.749,2.623a33.08,33.08,0,0,1,.791,4.785.2.2,0,0,0,.2.185h.019a.2.2,0,0,0,.185-.221,33.487,33.487,0,0,0-.8-4.844c-.208-.86-.435-1.653-.758-2.653-.23-.711-.492-1.467-.777-2.254a22.013,22.013,0,0,1,2.663,7.438c1.73,9.993,11.33,12.914,16.971,10.76a15.209,15.209,0,0,0,9.268-11.648C3284.079,963.9,3258.865,946.642,3251.944,951.255Z" transform="translate(-3213.547 -944.299)" fill="url(#linear-gradient-63)"/>
      <path id="Path_517" data-name="Path 517" d="M3257.371,1192.7c-7.347,12.781-12.1,31.789-18.255,53.31-5.529,19.331-10.336,36.638-12.764,50.184a26.532,26.532,0,0,0,4.253,2.867,28.85,28.85,0,0,0,16.075,3.176,129.305,129.305,0,0,1,1.812-15.065c1.6-8.869,4.444-25.337,11.234-40.258,4.71-10.351,7.065-15.526,11.044-19.062,2.447-2.174,8.115-6.777,9.09-13.786a6.129,6.129,0,0,0,.054-.884C3279.883,1203.369,3261.686,1194.645,3257.371,1192.7Z" transform="translate(-3199.193 -1099.794)" fill="url(#linear-gradient-52)"/>
      <path id="Path_518" data-name="Path 518" d="M3285.1,1192.7c-4.015,6.984-7.253,15.836-10.371,25.933,7.346,3.939,13.617,10.529,10.748,18.563-2.739,8.216-13.009,11.64-15.063,21.225-2.054,10.27,2.739,19.171.685,29.442a85.587,85.587,0,0,0-1.556,14.4,31.826,31.826,0,0,0,4.867-.028,129.305,129.305,0,0,1,1.812-15.065c1.6-8.869,4.444-25.337,11.234-40.258,4.71-10.351,7.065-15.526,11.044-19.062,2.446-2.174,8.115-6.777,9.089-13.786a6.067,6.067,0,0,0,.055-.884C3307.611,1203.369,3289.414,1194.645,3285.1,1192.7Z" transform="translate(-3226.921 -1099.794)" fill="url(#linear-gradient-65)"/>
      <path id="Path_519" data-name="Path 519" d="M3331.726,1231.246a3.273,3.273,0,0,0-.244,1.065c-.142,3.636,6.577,8.4,21.182,31.695,2.579,4.115,6.978,11.316,14.1,13.453a14.369,14.369,0,0,0,2.29.489,14.674,14.674,0,0,0,4.087-.039c1.767-.25,8.617.008,28.124,1.745.156-.347,3.485-8.084-.777-13.437a10.266,10.266,0,0,0-3.886-2.95c-4.576-.688-8.416-1.042-11.317-1.238a49.3,49.3,0,0,0-8.2-.026c-1.7.151-3.106.376-4.094.559-6.973-20.112-3.556-37.578-11.939-37.951C3359.379,1224.537,3333.441,1226.178,3331.726,1231.246Z" transform="translate(-3266.686 -1120.283)" fill="url(#linear-gradient-66)"/>
      <path id="Path_520" data-name="Path 520" d="M3227.083,1091.976c-4.258,1.477,2.147,16.7-6.583,28.364-4.41,5.895-11.05,8.7-16.848,10.139,1.177,3.78.979,3.793,2.155,7.573,3.04.126,14.386.231,23.983-8.012,2.446-2.1,10.021-8.608,10.513-18.726C3240.931,1098.429,3231.1,1090.584,3227.083,1091.976Z" transform="translate(-3184.62 -1035.029)" fill="url(#linear-gradient-67)"/>
      <path id="Path_521" data-name="Path 521" d="M3271.462,1039.083c-2.139,2.549-3.03,4.9-4.159,7.955-1.791,4.85-2.812,7.618-2.679,11.053.255,6.6,4.613,11.4,6.7,13.4,4.557,14.631,5.612,18.054,5.615,18.1l0,.091a41.675,41.675,0,0,1-1.342,7.471c-2.262,8.2-5.417,9.733-4.612,12.688,1.412,5.181,12.975,7.3,21.771,6.364,4.662-.5,5.09-1.483,9.043-2.177,16.6-2.916,24.252,11.822,35.112,8.038,7.72-2.689,7.83-11.632,17.863-13.4,3.5-.616,7.375-.23,7.7-1.563.319-1.3-2.943-3.379-5.694-4.466-5.937-2.345-11.419-.829-13.844-.446-10.863,1.716-21.921-9.581-28.557-16.359-18.76-19.163-18.236-45.832-18.013-51.383-1.49-.8-6.924-3.473-18.878-.255A20.352,20.352,0,0,0,3271.462,1039.083Z" transform="translate(-3223.757 -997.041)" fill="url(#linear-gradient-68)"/>
      <path id="Path_522" data-name="Path 522" d="M3417.425,1147.026c.32-1.3-2.942-3.379-5.694-4.466-5.937-2.345-11.419-.829-13.844-.446-10.863,1.716-21.921-9.58-28.557-16.359-9.422-9.623-13.978-21.139-16.153-30.924-1.478,10.906-5.4,21.959-.859,31.6,3.424,8.9,16.433,8.216,21.226,18.487,2.054,4.108,7.531,3.423,12.324,4.108,3.423,0,4.793,5.478,9.586,4.793,2.054-.685,3.423-4.108,4.792-4.108,1.741,0,3.618.023,5.552.122a14.659,14.659,0,0,1,3.924-1.247C3413.225,1147.972,3417.1,1148.358,3417.425,1147.026Z" transform="translate(-3278.7 -1036.964)" fill="#f8944e" opacity="0.24" style="mix-blend-mode: multiply;isolation: isolate"/>
      <path id="Path_523" data-name="Path 523" d="M3354.964,1238.131a12.973,12.973,0,0,1-7.536,3.044,7.976,7.976,0,0,1-2.826-.412,8.933,8.933,0,0,1-3.7-2.5,62.039,62.039,0,0,1,8.094-3.424l2.624-.7Z" transform="translate(-3272.732 -1126.399)" fill="url(#linear-gradient-69)"/>
      <g id="Group_209" data-name="Group 209" transform="translate(40.705 49.245)">
        <path id="Path_524" data-name="Path 524" d="M3345.078,1112.318l-62.414,25.13a3.169,3.169,0,0,1-4.123-1.756l-14.122-35.463a3.169,3.169,0,0,1,1.756-4.123l62.414-25.131a3.169,3.169,0,0,1,4.123,1.755l14.121,35.463A3.169,3.169,0,0,1,3345.078,1112.318Z" transform="translate(-3264.189 -1070.746)" fill="#6165d7"/>
        <path id="Path_525" data-name="Path 525" d="M3348.344,1113.349l-62.414,25.131a3.169,3.169,0,0,1-4.123-1.756l-14.122-35.463a3.168,3.168,0,0,1,1.756-4.123l62.414-25.131a3.168,3.168,0,0,1,4.123,1.756l14.121,35.463A3.169,3.169,0,0,1,3348.344,1113.349Z" transform="translate(-3266.286 -1071.408)" fill="#00c0d6"/>
        <g id="Group_204" data-name="Group 204" transform="translate(15.091 25.597)">
          <path id="Path_526" data-name="Path 526" d="M3342.5,1150.3a7.269,7.269,0,0,1,6.847,6.312,5.849,5.849,0,0,1-.3,2.671l7.531,3.482a13.46,13.46,0,0,0,.639-6.039c-.9-7.814-7.9-14.308-15.647-14.476h-.06l.929,8.052C3342.463,1150.3,3342.482,1150.3,3342.5,1150.3Z" transform="translate(-3328.923 -1142.25)" fill="#fff"/>
          <path id="Path_527" data-name="Path 527" d="M3326.471,1159.282a5.238,5.238,0,0,1-5.113,3.462,7.264,7.264,0,0,1-6.884-6.312,5.311,5.311,0,0,1,5.389-6.131l-.929-8.052c-7.781-.135-13.406,6.162-12.493,14.066.916,7.924,8.049,14.415,15.845,14.473a12.02,12.02,0,0,0,11.715-8.024Z" transform="translate(-3306.344 -1142.247)" fill="url(#linear-gradient-3)"/>
        </g>
        <g id="Group_205" data-name="Group 205" transform="translate(45.941 19.067)">
          <path id="Path_528" data-name="Path 528" d="M3419.885,1126.917l-26.029,10.658a.241.241,0,0,1-.314-.135l-1-2.48a.243.243,0,0,1,.131-.317l26.046-10.62a.237.237,0,0,1,.308.135l.988,2.447A.239.239,0,0,1,3419.885,1126.917Z" transform="translate(-3392.52 -1124.007)" fill="#4c53a5"/>
        </g>
        <g id="Group_206" data-name="Group 206" transform="translate(43.746 13.798)">
          <path id="Path_529" data-name="Path 529" d="M3413.752,1112.2l-26.029,10.658a.241.241,0,0,1-.314-.135l-1-2.48a.243.243,0,0,1,.132-.317l26.046-10.62a.238.238,0,0,1,.308.135l.988,2.447A.239.239,0,0,1,3413.752,1112.2Z" transform="translate(-3386.387 -1109.288)" fill="#4c53a5"/>
        </g>
        <g id="Group_207" data-name="Group 207" transform="translate(50.222 29.935)">
          <path id="Path_530" data-name="Path 530" d="M3431.844,1157.275l-26.03,10.658a.241.241,0,0,1-.314-.135l-1-2.48a.244.244,0,0,1,.131-.317l26.047-10.62a.237.237,0,0,1,.308.134l.988,2.448A.239.239,0,0,1,3431.844,1157.275Z" transform="translate(-3404.479 -1154.364)" fill="#4c53a5"/>
        </g>
        <g id="Group_208" data-name="Group 208" transform="translate(48.027 24.665)">
          <path id="Path_531" data-name="Path 531" d="M3425.711,1142.556l-26.03,10.658a.241.241,0,0,1-.314-.135l-1-2.48a.243.243,0,0,1,.132-.317l26.046-10.62a.238.238,0,0,1,.308.134l.988,2.448A.239.239,0,0,1,3425.711,1142.556Z" transform="translate(-3398.346 -1139.646)" fill="#4c53a5"/>
        </g>
      </g>
      <path id="Path_532" data-name="Path 532" d="M3321.387,1049.633c6.359-6.173,26.147.828,33.6,16.986,6.411,13.9,8.287,24.559,1.8,38.226a33.779,33.779,0,0,1-16.761,16.342c-.518-.907-2.423-2.505-4.928-6.3,6.311-2.366,12.251-13.762,12.918-20.765.887-9.3-4.032-18.246-8.62-21.533-4.286-3.071-17.333.44-21.434-2.451C3312.52,1066.3,3316.5,1054.379,3321.387,1049.633Z" transform="translate(-3256.326 -1006.519)" fill="url(#linear-gradient-71)"/>
      <path id="Path_533" data-name="Path 533" d="M3285.461,983.159c-1.1,5.231-1.554,11.537,1.962,14.793,3.1,2.867,7.536,1.764,7.85,3.265.621,2.965-16.215,9.592-17.48,7.485-.624-1.039,4.659-3.427,4.553-7.234-.044-1.582-.761-2.682-4.844-8.307l-1.364.478Z" transform="translate(-3231.156 -965.27)" fill="url(#linear-gradient-72)"/>
      <g id="Group_211" data-name="Group 211" transform="translate(39.619)">
        <path id="Path_534" data-name="Path 534" d="M3329.373,956.6c-2.677-8.159-10.921-12.292-12.48-13-9.688-4.384-13.441,1.534-24.868-2.591-.5-.18-.969-.365-1.422-.554a28.8,28.8,0,0,0,9.111,1.462c.239,0,.472.009.7.015.069,0,.14,0,.212,0a31.934,31.934,0,0,0,4.582-.545c1.077-.176,2.094-.343,2.872-.408a13.983,13.983,0,0,1,4.794.354c.228.05.454.1.685.146a.167.167,0,1,0,.066-.328c-.228-.046-.453-.1-.679-.145a14.235,14.235,0,0,0-4.895-.36c-.791.066-1.814.233-2.9.411a30.1,30.1,0,0,1-4.73.537c-.232-.006-.466-.011-.706-.015-2.558-.049-5.7-.115-11.916-2.446-.755-.395-1.469-.795-2.173-1.193l.712.276a28.186,28.186,0,0,0,5.589,1.751,13.4,13.4,0,0,0,2.133.169q.283,0,.566-.012a.2.2,0,0,0,.2-.212.2.2,0,0,0-.212-.2,13.1,13.1,0,0,1-2.617-.153,27.894,27.894,0,0,1-5.505-1.728c-.713-.278-1.451-.566-2.163-.817-.3-.107-.6-.207-.9-.3a28.8,28.8,0,0,0-9.339-3.176c-3.792-.646-10.846-.549-12.641,1.4-1.98,2.152,6.561,4.429,9.615,18.909a35.474,35.474,0,0,0,11,19.9c1.9,1.695,17.413,15.157,32.826,8.653C3325.151,978.077,3332.5,966.119,3329.373,956.6Z" transform="translate(-3261.158 -933.188)" fill="url(#linear-gradient-73)"/>
        <g id="Group_210" data-name="Group 210" transform="translate(12.111 9.334)" opacity="0.2" style="mix-blend-mode: multiply;isolation: isolate">
          <path id="Path_535" data-name="Path 535" d="M3351.093,973.335c-2.677-8.159-10.921-12.292-12.479-13a20.53,20.53,0,0,0-2.931-1.076,13.184,13.184,0,0,1,2.872,2.925c.778,1.1,2.669,3.767,2.233,6.922-.406,2.935-2.469,3.724-4.466,6.922-3.349,5.364-.945,8.593-3.126,11.611-3.851,5.329-17.1,3.229-25.455-.446a38.312,38.312,0,0,1-12.75-9.211,33.7,33.7,0,0,0,8.8,12.507c1.9,1.695,17.413,15.157,32.826,8.653C3346.871,994.817,3354.217,982.859,3351.093,973.335Z" transform="translate(-3294.99 -959.262)" fill="url(#linear-gradient-74)"/>
        </g>
      </g>
      <path id="Path_536" data-name="Path 536" d="M3267.833,971.277s.292,6.165-5.719,7.084c-7.407,1.133-11.116-18.3-9.479-19.688,1.9-1.6,4.2,1.3,8.9-.525,1.98-.769,3.361-3.664,4.819-.978,1.658,3.056,1.5,8.921,1.5,8.921s1.547-1.712,2.075,0C3270.622,968.321,3269.117,970,3267.833,971.277Z" transform="translate(-3215.822 -947.866)" fill="url(#linear-gradient-75)"/>
      <path id="Path_537" data-name="Path 537" d="M3250.953,938.065c-2,2.746-2.608,7.592-.633,9.691,2.838,3.015,9.248-1.516,12.688,2.177,1.508,1.619,1.805,4.131,2.443,4,.528-.112.588-1.892.685-3.364.533-8.113,2.362-9.285,1.433-11.447C3265.68,934.72,3255.056,932.426,3250.953,938.065Z" transform="translate(-3213.804 -934.175)" fill="url(#linear-gradient-76)"/>
      <path id="Path_538" data-name="Path 538" d="M3199.422,1507.556c.527-.735,3.987-.361,5.734.6,2.931,1.611,4.641,4.484,5.392,4.878a4.746,4.746,0,0,0,3.479.17s1.143,2.312-.911,3.425S3196.17,1512.092,3199.422,1507.556Z" transform="translate(-3181.606 -1301.689)" fill="#26264f"/>
    </g>
  </g>
</svg>
