<svg id="Component_13_1" data-name="Component 13 – 1" xmlns="http://www.w3.org/2000/svg" width="240.476" height="240.476" viewBox="0 0 240.476 240.476">
  <circle id="Ellipse_3" data-name="Ellipse 3" cx="120.238" cy="120.238" r="120.238" fill="#00c0d6"/>
  <g id="usgLth" transform="translate(-653.762 -419.762)">
    <g id="Group_216" data-name="Group 216">
      <path id="Path_544" data-name="Path 544" d="M853.707,505.971a10.064,10.064,0,0,0-16.3-2.234c-1.8,1.848-3.644,3.643-5.436,5.426v-1.338q0-14.357,0-28.714c-.005-5.521-2.759-8.479-7.869-8.479H723.214c-5.118,0-7.874,2.964-7.874,8.467V596.777c0,5.619,2.726,8.574,7.912,8.574q43.338,0,86.673,0c5.014,0,10.025.023,15.039-.009a6.9,6.9,0,0,0,6.7-5.444,14.361,14.361,0,0,0,.3-3.367q.028-25.686-.011-51.365a4.614,4.614,0,0,1,1.222-3.388c5.735-6.417,11.368-12.943,17.1-19.36,2.236-2.5,4.324-5.049,5.072-8.556v-3.554A30.1,30.1,0,0,0,853.707,505.971Zm-29.595,94.915q-50.448,0-100.9,0c-2.773,0-3.751-1.024-3.751-3.949q0-50.627,0-101.258v-1.527h46.945c2.247,0,3.178-.668,3.159-2.258-.019-1.555-.973-2.213-3.217-2.213H719.5c0-4.085-.063-8.019.033-11.947a2.745,2.745,0,0,1,2.569-2.614,12.418,12.418,0,0,1,1.365-.023H823.821c3.219,0,4,.854,4,4.393v10.191H778.068c-2.3,0-3.353.724-3.331,2.272s1.041,2.2,3.386,2.2h49.605c.036.59.088,1.062.088,1.533.005,5.871.033,11.745-.03,17.616a3.7,3.7,0,0,1-.789,2.193q-15.885,18.165-31.868,36.231a2.781,2.781,0,0,1-1.885.813c-5.7.063-11.4.036-17.091.036-.364,0-.729-.009-1.093.006a2.17,2.17,0,0,0-2.252,2.216,2.2,2.2,0,0,0,2.279,2.225c2.414.044,4.831.015,7.245.015h7.77c-2.318,5.746-4.592,11.415-6.913,17.067a1.771,1.771,0,0,1-.937.739,2.537,2.537,0,0,1-.948.023H743.023a6.516,6.516,0,0,0-1.364.039,2.043,2.043,0,0,0-1.759,2.255,1.985,1.985,0,0,0,1.854,2.138,10.948,10.948,0,0,0,1.368.021q19.55,0,39.1-.012a2.385,2.385,0,0,1,2.12.92,4.658,4.658,0,0,0,6.006,1.32c4.877-2.427,9.658-5.079,14.461-7.681a5.081,5.081,0,0,0,1.214-1.174c1.6-1.8,3.189-3.623,4.956-5.634.052.626.107.988.11,1.353.005,5.823-.025,11.644.024,17.467.009,1.267-.328,1.724-1.55,1.721q-35.891-.045-71.779,0c-1.271,0-1.649-.472-1.644-1.807q.062-13.545,0-27.091c-.005-1.3.408-1.694,1.589-1.688,9.113.038,18.229.024,27.344.015a5.535,5.535,0,0,0,1.619-.155,2.021,2.021,0,0,0,1.433-2.364,1.934,1.934,0,0,0-1.778-1.9,9.51,9.51,0,0,0-1.23-.032q-13.738,0-27.481,0c-3.786,0-5.6,1.97-5.6,6.09q0,13.617,0,27.237c0,4.1,1.852,6.123,5.592,6.123h72.05c3.71,0,5.54-1.967,5.545-5.989.008-7.5,0-15,.017-22.5a2.85,2.85,0,0,1,.334-1.653c3.945-4.568,7.943-9.084,12.14-13.854.047.75.1,1.207.1,1.661q.008,23.612,0,47.223C827.819,599.9,826.89,600.886,824.112,600.886Zm-33.988-30.767a1.542,1.542,0,0,1-.266-1.249c.7-1.911,1.5-3.783,2.359-5.883,2.734,2.821,5.326,5.494,8.072,8.33-1.929,1.038-3.691,2.02-5.488,2.91a1.166,1.166,0,0,1-1.033-.329C792.518,572.679,791.294,571.427,790.124,570.119Zm.23,6.47c-1.055.564-2.055,1.623-2.9.534-.452-.579-.079-1.911-.079-2.9.17-.059.342-.115.515-.175C788.674,574.859,789.461,575.669,790.354,576.589Zm13.439-7.85c-3.137-3.239-6.222-6.42-9.368-9.662L836.446,511.3c3.184,3.278,6.217,6.4,9.376,9.656Zm44.859-51.053c-3.115-3.21-6.192-6.384-9.315-9.6,1.693-2.308,3.77-3.418,6.373-2.976a6.307,6.307,0,0,1,5.227,4.955C851.757,513.073,850.789,515.544,848.652,517.686Z" fill="#fff"/>
      <path id="Path_545" data-name="Path 545" d="M848.652,517.686c-3.115-3.21-6.192-6.384-9.315-9.6,1.693-2.308,3.77-3.418,6.373-2.976a6.307,6.307,0,0,1,5.227,4.955C851.757,513.073,850.789,515.544,848.652,517.686Z" fill="#ff9500"/>
      <path id="Path_546" data-name="Path 546" d="M790.354,576.589c-1.055.564-2.055,1.623-2.9.534-.452-.579-.079-1.911-.079-2.9.17-.059.342-.115.515-.175C788.674,574.859,789.461,575.669,790.354,576.589Z" fill="#ff9500"/>
      <path id="Path_547" data-name="Path 547" d="M800.289,571.317c-1.929,1.038-3.691,2.02-5.488,2.91a1.166,1.166,0,0,1-1.033-.329c-1.25-1.219-2.474-2.471-3.644-3.779a1.542,1.542,0,0,1-.266-1.249c.7-1.911,1.5-3.783,2.359-5.883C794.951,565.808,797.543,568.481,800.289,571.317Z" fill="#ff9500"/>
      <path id="Path_548" data-name="Path 548" d="M845.822,520.952l-42.029,47.787c-3.137-3.239-6.222-6.42-9.368-9.662L836.446,511.3C839.63,514.574,842.663,517.7,845.822,520.952Z" fill="#ff9500"/>
      <path id="Path_549" data-name="Path 549" d="M755.669,484.085q-10.593,0-21.187,0c-2.211,0-3.226-.694-3.247-2.207-.02-1.531,1.029-2.287,3.187-2.288h42.511c2.157,0,3.207.762,3.179,2.3-.027,1.478-1.035,2.2-3.119,2.2Q766.331,484.089,755.669,484.085Z" fill="#fff"/>
      <path id="Path_550" data-name="Path 550" d="M755.535,544.987c-6.926,0-13.853.017-20.779-.027a2.941,2.941,0,0,1-1.987-.636,2.579,2.579,0,0,1-.563-2.072,3.664,3.664,0,0,1,1.551-1.633c.333-.227.888-.085,1.343-.085q20.576,0,41.15,0c.273,0,.547-.013.82,0a2.2,2.2,0,0,1,2.224,2.275A2.145,2.145,0,0,1,777,544.978c-5.833.018-11.666.008-17.5.009Z" fill="#fff"/>
      <path id="Path_551" data-name="Path 551" d="M755.6,532.051q-10.114,0-20.23,0a11.184,11.184,0,0,1-1.5-.057,1.992,1.992,0,0,1-1.794-2.067,2.029,2.029,0,0,1,1.6-2.245,6.135,6.135,0,0,1,1.491-.12q20.5-.009,41.007-.005h.274c1.812.022,2.814.809,2.839,2.229s-.974,2.261-2.777,2.263Q766.059,532.061,755.6,532.051Z" fill="#fff"/>
      <path id="Path_552" data-name="Path 552" d="M786.878,514.282c.754-2.673,1.5-5.347,2.263-8.017.517-1.812,1.334-2.542,2.652-2.406s2.029,1.044,2.306,2.84q.89,5.76,1.8,11.517c.053.34.1.682.126,1.025.084,1.228-.428,2.043-1.555,2.193-1.15.153-1.808-.578-1.978-1.757-.422-2.917-.8-5.842-1.25-9.175-.281.786-.462,1.206-.583,1.645-.676,2.454-1.351,4.909-2,7.373-.28,1.07-.672,1.973-1.88,1.951s-1.717-.878-2.013-2.026c-.612-2.372-1.268-4.731-1.913-7.092a3.206,3.206,0,0,0-.693-1.4c-.383,2.8-.753,5.611-1.156,8.413-.233,1.627-.954,2.3-2.111,2.062-1.122-.232-1.634-1.229-1.4-2.747q.936-6.053,1.882-12.1c.271-1.729,1.1-2.652,2.414-2.725,1.255-.07,2.06.656,2.548,2.378.758,2.672,1.488,5.354,2.231,8.032Z" fill="#fff"/>
      <path id="Path_553" data-name="Path 553" d="M757.806,564.393q7.449,0,14.9,0c.5,0,1.121-.148,1.474.111.618.455,1.448,1.14,1.495,1.787a3.911,3.911,0,0,1-1.073,2.273c-.251.314-.938.3-1.428.3q-15.31.023-30.619.005a3.89,3.89,0,0,1-1.211-.161,2.039,2.039,0,0,1-1.433-2.364,1.919,1.919,0,0,1,1.769-1.909,10.694,10.694,0,0,1,1.364-.043Q750.424,564.391,757.806,564.393Z" fill="#fff"/>
      <path id="Path_554" data-name="Path 554" d="M774.274,520.028c-.361.385-.751,1.147-1.261,1.258-.588.127-1.284-.316-1.928-.528a.334.334,0,0,1-.14-.244c-.255-2.907-2.193-2.624-4.044-2.51a2.675,2.675,0,0,1-.681,0c-1.588-.32-2.52.209-2.794,2.094a1.541,1.541,0,0,1-2.192,1.314,1.786,1.786,0,0,1-1.161-2.446q2.249-6.723,4.616-13.4a2.422,2.422,0,0,1,2.473-1.728,2.693,2.693,0,0,1,2.512,2.128q2.151,6.293,4.264,12.6C774.06,518.925,774.114,519.317,774.274,520.028Zm-9.184-5.583h3.933l-1.915-6.578C766.368,510.28,765.745,512.312,765.09,514.445Z" fill="#fff"/>
      <path id="Path_555" data-name="Path 555" d="M750.843,508.873c.885-1.357,1.656-2.564,2.45-3.751.9-1.341,1.8-1.631,2.742-.914.97.739,1.007,1.856.079,3.219-.863,1.267-1.717,2.546-2.639,3.762a1.191,1.191,0,0,0,0,1.664c1.2,1.672,2.352,3.382,3.5,5.094.849,1.264.793,2.425-.11,3.116-.919.7-1.89.413-2.768-.883-1.069-1.578-2.106-3.182-3.252-4.918-1.146,1.731-2.185,3.323-3.248,4.9-.884,1.31-1.818,1.6-2.755.913-.991-.732-1.03-1.8-.087-3.2,1.286-1.909,2.588-3.8,3.881-5.708.024-.035.016-.1.04-.267-1.016-1.457-2.088-2.977-3.141-4.512-.888-1.294-.862-2.34.045-3.113s1.871-.538,2.766.772C749.155,506.227,749.918,507.449,750.843,508.873Z" fill="#fff"/>
      <path id="Path_556" data-name="Path 556" d="M735.612,510.892c1.173,0,2.257,0,3.341,0a1.732,1.732,0,1,1,.055,3.464c-1.086.056-2.175.013-3.358.013v3.378c1.127,0,2.29.012,3.452,0,1.142-.015,2,.414,2.126,1.756.1,1.066-.735,1.744-2.075,1.759q-2.46.026-4.921,0c-1.647-.019-2.249-.641-2.256-2.384q-.026-6.216,0-12.432c.007-1.692.608-2.348,2.128-2.369,1.685-.023,3.371.01,5.057-.01,1.069-.013,1.821.446,1.864,1.653A1.659,1.659,0,0,1,739.2,507.6c-1.173.023-2.346.005-3.59.005Z" fill="#fff"/>
      <path id="Path_557" data-name="Path 557" d="M817.056,481.834A2.109,2.109,0,0,1,814.917,484a2.064,2.064,0,0,1-1.992-2.157,2.156,2.156,0,0,1,2.049-2.279A2.195,2.195,0,0,1,817.056,481.834Z" fill="#fff"/>
      <path id="Path_558" data-name="Path 558" d="M808.289,481.959a2.075,2.075,0,1,1-1.967-2.389A2.224,2.224,0,0,1,808.289,481.959Z" fill="#fff"/>
      <path id="Path_559" data-name="Path 559" d="M799.53,481.789a2.17,2.17,0,0,1-2.074,2.258,2.048,2.048,0,0,1-2.069-2.077,2.163,2.163,0,0,1,1.97-2.358A2.211,2.211,0,0,1,799.53,481.789Z" fill="#fff"/>
    </g>
  </g>
</svg>
