<svg id="Component_14_1" data-name="Component 14 – 1" xmlns="http://www.w3.org/2000/svg" width="240.476" height="240.476" viewBox="0 0 240.476 240.476">
  <circle id="Ellipse_4" data-name="Ellipse 4" cx="120.238" cy="120.238" r="120.238" fill="#00c0d6"/>
  <g id="fPefYg" transform="translate(-1056.762 -419.762)">
    <g id="Group_217" data-name="Group 217">
      <path id="Path_560" data-name="Path 560" d="M1196.93,582.548c-.7-4.467-1.37-8.871-2.076-13.269a34.416,34.416,0,0,1,1.052-15.008,35.441,35.441,0,0,1,5.669-10.893c2.772-3.881,5.457-7.822,8.205-11.72a21.4,21.4,0,0,1,5.685-5.857,6.568,6.568,0,0,1,4.817-1.142,5.162,5.162,0,0,1,4.543,5.139,19.058,19.058,0,0,1-1.7,8.126c-1.852,4.446-3.829,8.841-5.754,13.257-.2.453-.408.9-.6,1.357a2.033,2.033,0,0,1-2.6,1.221,1.959,1.959,0,0,1-1.175-2.734c.861-1.984,1.8-3.934,2.688-5.905a85.689,85.689,0,0,0,4.754-12.138,12.038,12.038,0,0,0,.418-2.694c.054-1.248-.785-1.849-2.006-1.564a6.764,6.764,0,0,0-3.58,2.661c-1.632,1.993-3.117,4.108-4.62,6.2-1.793,2.5-3.537,5.031-5.307,7.546a35.833,35.833,0,0,0-4.747,8.059,30.549,30.549,0,0,0-1.7,15.448q.968,6.254,1.949,12.505c.052.33.124.657.2,1.035h19.031c-.192-.5-.34-.936-.521-1.357a12.479,12.479,0,0,1-.027-9.384,56.493,56.493,0,0,1,6.413-12.134c2.245-3.421,4.533-6.815,6.72-10.273a34.913,34.913,0,0,0,5.2-21.5,102.25,102.25,0,0,0-2.81-16.708q-2.674-11.408-5.461-22.788a21.06,21.06,0,0,0-2.831-7.072,6.364,6.364,0,0,0-1.912-1.769,1.4,1.4,0,0,0-2.175.884,7.135,7.135,0,0,0-.369,2.371c.307,6.305.663,12.607,1.021,18.909.324,5.705.678,11.407,1,17.112a1.98,1.98,0,0,1-1.87,2.319,1.9,1.9,0,0,1-2.184-1.915q-.335-5.273-.631-10.547c-.458-7.994-.938-15.988-1.338-23.985a19.977,19.977,0,0,1,.287-4.807,5.35,5.35,0,0,1,4.036-4.437,6.084,6.084,0,0,1,6.188,1.888,16.477,16.477,0,0,1,3.962,7.452c2.1,8.088,4.136,16.2,6.035,24.333a116.625,116.625,0,0,1,2.991,16.6c.554,6.517.157,12.919-2.278,19.075a63.844,63.844,0,0,1-5.985,10.863c-2.773,4.318-5.558,8.63-8.183,13.038a18.624,18.624,0,0,0-2.475,6.386,7.576,7.576,0,0,0,.36,4.3c.354.84.693,1.689,1,2.548a.894.894,0,0,0,.9.678,7.58,7.58,0,0,1,3.73,1.265,7.948,7.948,0,0,1,3.856,6.78c.1,4.846.033,9.7.032,14.543a1.493,1.493,0,0,1-.062.276h-41.558v-.814q0-6.654,0-13.309a8.322,8.322,0,0,1,5.469-8.3C1196.685,582.66,1196.777,582.617,1196.93,582.548Zm31.691,18.529c.022-.183.045-.284.045-.384,0-3.364.039-6.728-.011-10.091a4.267,4.267,0,0,0-4.5-4.3q-12.205,0-24.413,0a4.252,4.252,0,0,0-4.544,4.546c-.009,3.183,0,6.365,0,9.548,0,.223.028.447.044.678Z" fill="#fff"/>
      <path id="Path_561" data-name="Path 561" d="M1133.777,582.2h18.977c.238-1.542.47-3.052.7-4.562.508-3.27,1.06-6.533,1.516-9.81a29.443,29.443,0,0,0-5.8-21.636c-2.929-4.153-5.8-8.348-8.776-12.467a28.754,28.754,0,0,0-3.322-3.726,5.915,5.915,0,0,0-2.2-1.257,1.39,1.39,0,0,0-1.953,1.5,16.768,16.768,0,0,0,.88,4.26c1.645,4.221,3.44,8.383,5.2,12.56.545,1.3,1.174,2.557,1.727,3.85a1.979,1.979,0,0,1-1.1,2.825,2.051,2.051,0,0,1-2.686-1.3c-1.092-2.422-2.251-4.814-3.33-7.242a58.433,58.433,0,0,1-4.38-12.014,15.226,15.226,0,0,1-.218-4.117c.206-2.745,3.2-4.854,6.06-4.47a9.673,9.673,0,0,1,6.138,3.735c1.94,2.309,3.7,4.771,5.457,7.23,2.662,3.735,5.313,7.482,7.85,11.3a30.4,30.4,0,0,1,4.369,11.948,40.59,40.59,0,0,1-.549,14.149c-.572,3.175-1,6.376-1.5,9.618a8.758,8.758,0,0,1,4.093,2.9,7.556,7.556,0,0,1,1.675,4.468c.069,5.034.025,10.07.025,15.173h-41.617v-4.3c0-3.335-.02-6.67,0-10.005a8.373,8.373,0,0,1,6.506-8.4.958.958,0,0,1,.3-.073c1.334.176,1.726-.691,2.109-1.738.591-1.619,1.362-3.192,1.068-4.977a17.927,17.927,0,0,0-.746-3.179,44.23,44.23,0,0,0-4.595-8.953c-2.8-4.336-5.681-8.617-8.4-13a35.837,35.837,0,0,1-5.314-15.863,47.194,47.194,0,0,1,.527-13.095q1.935-10.125,4.237-20.178c1.265-5.557,2.681-11.083,4.183-16.582a16.591,16.591,0,0,1,4.736-8.393,5.761,5.761,0,0,1,9.46,2.731,12.142,12.142,0,0,1,.446,3.7c-.4,8.181-.888,16.357-1.352,24.534-.212,3.751-.44,7.5-.657,11.251-.087,1.511-.814,2.257-2.156,2.2a1.994,1.994,0,0,1-1.914-2.361c.262-4.766.556-9.531.829-14.3q.447-7.811.877-15.619c.112-2.006.27-4.011.309-6.018a7.944,7.944,0,0,0-.378-2.447,1.377,1.377,0,0,0-2.118-.876,6.674,6.674,0,0,0-2.005,1.886,24.875,24.875,0,0,0-3.121,8.209c-1.65,6.62-3.261,13.25-4.779,19.9a134.136,134.136,0,0,0-2.879,15.114c-.693,6.291-.611,12.544,1.838,18.479a60.521,60.521,0,0,0,4.457,8.4c2.6,4.244,5.472,8.319,8.082,12.556a34.25,34.25,0,0,1,4.05,8.943,11.929,11.929,0,0,1-.444,8.26c-.15.332-.265.68-.391,1.022A1.082,1.082,0,0,0,1133.777,582.2Zm24.783,18.88v-.763q0-4.734,0-9.468a4.26,4.26,0,0,0-4.554-4.544q-12.086,0-24.172,0c-3.03,0-4.737,1.717-4.741,4.766s0,6.1,0,9.151v.854Z" fill="#fff"/>
      <path id="Path_562" data-name="Path 562" d="M1212.37,507.49a2.767,2.767,0,0,0-.34-1.18,3.5,3.5,0,0,0-3.46-2.08c-1.56.04-3.12.01-4.69.01a27.389,27.389,0,0,0-3.54-8.39.664.664,0,0,1,.1-.96c.88-.88,1.69-1.86,2.65-2.65a3.884,3.884,0,0,0,.12-5.8c-1.03-.96-2.01-1.96-3.03-2.93a3.655,3.655,0,0,0-5.21.03c-1.15,1.13-2.31,2.25-3.51,3.43a28.284,28.284,0,0,0-8.58-3.49c-.16-.04-.35-.41-.36-.63-.05-1.44-.02-2.87-.08-4.31a3.613,3.613,0,0,0-3.72-3.63c-1.43-.03-2.87-.02-4.3.03a3.776,3.776,0,0,0-3.84,4.03c.09,1.33.02,2.66.05,3.99a.624.624,0,0,1-.57.75,15.688,15.688,0,0,0-2.61.78c-1.95.85-3.87,1.79-5.87,2.72-.49-.46-1.09-1-1.67-1.56-.6-.58-1.17-1.19-1.8-1.74a3.391,3.391,0,0,0-4.75-.11,32.168,32.168,0,0,0-3.64,3.65,3.717,3.717,0,0,0,.3,5.15c1.17,1.02,2.16,2.25,3.28,3.43a25.982,25.982,0,0,0-3.34,8.05.881.881,0,0,1-1.04.82c-1.23-.03-2.46.11-3.68.02a3.809,3.809,0,0,0-3.99,3.96c.05,1.27.04,2.55.05,3.83.03,2.82,1.72,4.3,4.51,4.08,1.35-.11,2.7-.02,4.06-.02a27.569,27.569,0,0,0,3.55,8.43.658.658,0,0,1-.1.96,32.048,32.048,0,0,1-2.54,2.54,3.924,3.924,0,0,0,0,6.13c.92.81,1.78,1.69,2.65,2.55a3.682,3.682,0,0,0,5.48.02c1.11-1.1,2.23-2.18,3.33-3.25,1.38.67,2.75,1.43,4.19,2s2.98.93,4.46,1.43c.17.05.34.41.34.63.05,1.39.04,2.77.07,4.15a3.661,3.661,0,0,0,3.75,3.78c1.43.03,2.87.03,4.3-.04a3.755,3.755,0,0,0,3.83-4.03c-.1-1.25-.01-2.51-.05-3.76-.03-.58.09-.88.73-1.02a13.837,13.837,0,0,0,2.68-.82c1.88-.82,3.72-1.74,5.64-2.64,1.12,1.08,2.29,2.27,3.53,3.37a3.367,3.367,0,0,0,4.63.09,33.048,33.048,0,0,0,3.7-3.69,3.622,3.622,0,0,0-.32-5.14c-.38-.31-.71-.69-1.06-1.03-.78-.76-1.56-1.51-2.21-2.15.72-1.5,1.43-2.81,1.98-4.18s.97-2.8,1.39-4.22c.15-.48.31-.72.88-.72,1.36.02,2.71-.06,4.07-.08a3.538,3.538,0,0,0,3.63-3.35C1212.49,510.99,1212.42,509.24,1212.37,507.49Zm-4.01,4.65h-5.13c-.39,0-.78-.01-1.17-.01-1.5.01-1.51.01-1.72,1.47a24.531,24.531,0,0,1-2.94,8.6c-.69,1.22-1.47,2.39-2.15,3.49,1.79,1.89,3.52,3.72,5.36,5.66-.82.72-1.72,1.52-2.91,2.57-1.32-1.44-2.75-3.03-4.22-4.58-.86-.9-.88-.86-1.98-.2a38.974,38.974,0,0,1-5,2.88,58.9,58.9,0,0,1-6.7,2.04c-.63.17-.81.41-.8,1.05.04,2.27.02,4.53.02,6.88h-3.69v-7.62c-1.77-.42-3.44-.79-5.1-1.21a25.521,25.521,0,0,1-7.87-3.9c-.62-.42-.93-.3-1.42.18-1.63,1.58-3.31,3.1-4.97,4.64-.64-.65-1.48-1.52-2.45-2.52.89-.85,1.86-1.76,2.81-2.68.78-.76,1.56-1.53,2.3-2.34a.77.77,0,0,0,.04-.71c-.43-.74-.9-1.46-1.39-2.17a25.182,25.182,0,0,1-3.87-9.89c-.03-.16-.07-.31-.1-.46-.05-.2-.1-.4-.16-.63h-7.77v-3.77h4.65c.89,0,1.77.04,2.65-.02.21-.02.5-.39.56-.64a38.407,38.407,0,0,1,.95-4.18c.73-1.99,1.65-3.92,2.58-5.84a33.867,33.867,0,0,1,1.76-2.9c-1.79-1.86-3.56-3.7-5.46-5.67.83-.72,1.73-1.51,2.7-2.35,1.19,1.16,2.51,2.37,3.76,3.66,1.62,1.66,1.61,1.71,3.53.38a25.327,25.327,0,0,1,9.65-4.09c.66-.13,1.3-.32,2-.5v-7.71h3.68v7.63c1.71.4,3.28.74,4.85,1.12a26.371,26.371,0,0,1,7.79,3.72c1.4.9.95.84,2.07-.22,1.54-1.45,3.09-2.88,4.68-4.37.69.7,1.52,1.55,2.52,2.57-.86.81-1.79,1.65-2.68,2.51-.85.81-1.68,1.64-2.47,2.5a.785.785,0,0,0-.07.7c.43.75.91,1.46,1.4,2.17a25.318,25.318,0,0,1,3.86,9.82c.07.38.16.75.25,1.17h7.77Z" fill="#fff"/>
      <path id="Path_563" data-name="Path 563" d="M1200.59,508.37c-.09-.42-.18-.79-.25-1.17a25.318,25.318,0,0,0-3.86-9.82c-.49-.71-.97-1.42-1.4-2.17a.785.785,0,0,1,.07-.7c.79-.86,1.62-1.69,2.47-2.5.89-.86,1.82-1.7,2.68-2.51-1-1.02-1.83-1.87-2.52-2.57-1.59,1.49-3.14,2.92-4.68,4.37-1.12,1.06-.67,1.12-2.07.22a26.371,26.371,0,0,0-7.79-3.72c-1.57-.38-3.14-.72-4.85-1.12v-7.63h-3.68v7.71c-.7.18-1.34.37-2,.5a25.327,25.327,0,0,0-9.65,4.09c-1.92,1.33-1.91,1.28-3.53-.38-1.25-1.29-2.57-2.5-3.76-3.66-.97.84-1.87,1.63-2.7,2.35,1.9,1.97,3.67,3.81,5.46,5.67a33.867,33.867,0,0,0-1.76,2.9c-.93,1.92-1.85,3.85-2.58,5.84a38.407,38.407,0,0,0-.95,4.18c-.06.25-.35.62-.56.64-.88.06-1.76.02-2.65.02h-4.65v3.77h7.77c.06.23.11.43.16.63.03.15.07.3.1.46a25.182,25.182,0,0,0,3.87,9.89c.49.71.96,1.43,1.39,2.17a.77.77,0,0,1-.04.71c-.74.81-1.52,1.58-2.3,2.34-.95.92-1.92,1.83-2.81,2.68.97,1,1.81,1.87,2.45,2.52,1.66-1.54,3.34-3.06,4.97-4.64.49-.48.8-.6,1.42-.18a25.521,25.521,0,0,0,7.87,3.9c1.66.42,3.33.79,5.1,1.21v7.62h3.69c0-2.35.02-4.61-.02-6.88-.01-.64.17-.88.8-1.05a58.9,58.9,0,0,0,6.7-2.04,38.974,38.974,0,0,0,5-2.88c1.1-.66,1.12-.7,1.98.2,1.47,1.55,2.9,3.14,4.22,4.58,1.19-1.05,2.09-1.85,2.91-2.57-1.84-1.94-3.57-3.77-5.36-5.66.68-1.1,1.46-2.27,2.15-3.49a24.531,24.531,0,0,0,2.94-8.6c.21-1.46.22-1.46,1.72-1.47.39,0,.78.01,1.17.01h5.13v-3.77Zm-24.21,16.59a14.427,14.427,0,1,1,14.83-13.84A14.393,14.393,0,0,1,1176.38,524.96Z" fill="#ff9500"/>
      <path id="Path_564" data-name="Path 564" d="M1177.5,496.13a14.427,14.427,0,1,0,13.71,14.99A14.307,14.307,0,0,0,1177.5,496.13Zm-.71,24.72a10.33,10.33,0,1,1,10.35-10.15A10.263,10.263,0,0,1,1176.79,520.85Z" fill="#fff"/>
      <path id="Path_565" data-name="Path 565" d="M1187.14,510.7a10.257,10.257,0,1,1-10.32-10.51A10.277,10.277,0,0,1,1187.14,510.7Z" fill="#ff9500"/>
    </g>
  </g>
</svg>
