<svg id="Component_12_1" data-name="Component 12 – 1" xmlns="http://www.w3.org/2000/svg" width="240.476" height="240.476" viewBox="0 0 240.476 240.476">
  <path id="Path_566" data-name="Path 566" d="M120.238,0A120.238,120.238,0,1,1,0,120.238,120.238,120.238,0,0,1,120.238,0Z" fill="#00c0d6"/>
  <g id="Group_215" data-name="Group 215" transform="translate(-250.762 -419.762)">
    <g id="_018RGE" data-name="018RGE">
      <g id="Group_214" data-name="Group 214">
        <path id="Path_539" data-name="Path 539" d="M411.189,503.8c-9.03-12.47-21.97-18.25-37.15-19.07-12.61-.68-24.11,2.59-33.82,10.89-11.84,10.13-17.2,23.37-17.92,38.73a36.061,36.061,0,0,1-1.34,8.13,100.979,100.979,0,0,1-3.65,9.88c-1.14,2.78-2.55,5.46-3.68,8.25a5.311,5.311,0,0,0,4.46,7.56,25.362,25.362,0,0,0,2.76.07c3.85.03,5.33,1.48,5.34,5.3.02,7.62.01,15.25.03,22.87.02,7.21,4.72,11.94,11.98,11.97q11.43.06,22.87-.03c6.92-.05,11.66-4.8,11.74-11.7.04-3.18,0-6.37.01-9.55q.06-11.31.12-22.61V556.1a23.217,23.217,0,0,0,17.7-10.65,22.1,22.1,0,0,0,3.32-15.87,22.959,22.959,0,0,0-45.6,2.1c-.62,10.94,6.85,22.75,21.33,24.45v8.34c.04.76.12,1.51.13,2.26,0,9.88.02,19.77-.01,29.66-.01,5.51-3.35,8.91-8.91,9.01-3.93.07-7.87.01-11.81.01-3.77-.01-7.54.06-11.31-.02-4.43-.1-7.9-2.7-8.37-6.81-.42-3.61-.09-7.29-.09-11.11h2.42c2.01-.01,4.03.09,6.03-.08a2.282,2.282,0,0,0,1.67-1.34c.24-1.12-.63-1.59-1.72-1.56-.67.02-1.34,0-2.01,0h-6.52v-9.2c0-7.79-1.96-9.82-9.68-10.04-3.13-.09-4.04-1.54-2.77-4.4,1.57-3.52,3.23-7,4.66-10.57,2-4.97,3.78-10.01,3.97-15.48a55.525,55.525,0,0,1,.85-8.74c7.43-38.04,45.05-46.26,69.94-31.94,20.58,11.84,25.5,37.03,20.35,53.75-2.41,7.82-6.38,14.92-10.1,22.13-4.23,8.2-8.1,16.52-9.94,25.66-1.63,8.06-.98,16.19-1.16,24.3-.01.25-.04.59.1.73.43.44.94,1.11,1.42,1.11a1.907,1.907,0,0,0,1.32-1.14,7.2,7.2,0,0,0,.14-2.24c.17-6.36-.03-12.75.6-19.07.89-8.86,4.6-16.88,8.56-24.77,3.38-6.73,7.02-13.36,9.83-20.33C424.489,536.415,422.449,519.335,411.189,503.8Zm-59.87,29.1a19.975,19.975,0,0,1,20.12-19.75c11.21.05,19.94,9.09,19.84,20.53-.1,10.64-9.39,19.68-20.12,19.57A20.064,20.064,0,0,1,351.319,532.9Z" fill="#fff" stroke="#fff" stroke-miterlimit="10" stroke-width="2"/>
        <rect id="Rectangle_1171" data-name="Rectangle 1171" width="5.382" height="21.095" rx="2.691" transform="translate(304.839 495.999) rotate(-56.872)" fill="#fff"/>
        <rect id="Rectangle_1172" data-name="Rectangle 1172" width="5.382" height="21.095" rx="2.691" transform="matrix(0.745, -0.667, 0.667, 0.745, 316.962, 480.084)" fill="#fff"/>
        <rect id="Rectangle_1173" data-name="Rectangle 1173" width="5.382" height="21.095" rx="2.691" transform="translate(332.791 467.849) rotate(-26.872)" fill="#fff"/>
        <rect id="Rectangle_1174" data-name="Rectangle 1174" width="5.382" height="21.095" rx="2.691" transform="translate(351.247 460.127) rotate(-11.872)" fill="#fff"/>
        <rect id="Rectangle_1175" data-name="Rectangle 1175" width="5.382" height="21.095" rx="2.691" transform="translate(371.073 457.446) rotate(3.128)" fill="#fff"/>
        <rect id="Rectangle_1176" data-name="Rectangle 1176" width="5.382" height="21.095" rx="2.691" transform="translate(390.917 459.987) rotate(18.128)" fill="#fff"/>
        <rect id="Rectangle_1177" data-name="Rectangle 1177" width="5.382" height="21.095" rx="2.691" transform="translate(409.428 467.578) rotate(33.128)" fill="#fff"/>
        <rect id="Rectangle_1178" data-name="Rectangle 1178" width="5.382" height="21.095" rx="2.691" transform="translate(425.343 479.701) rotate(48.128)" fill="#fff"/>
        <rect id="Rectangle_1179" data-name="Rectangle 1179" width="5.382" height="21.095" rx="2.691" transform="translate(437.578 495.53) rotate(63.128)" fill="#fff"/>
        <path id="Path_540" data-name="Path 540" d="M372.942,564.483V556.1c7.587-.853,13.538-4.318,17.7-10.649a22.091,22.091,0,0,0,3.318-15.87,22.957,22.957,0,0,0-45.6,2.1c-.624,10.939,6.847,22.75,21.325,24.448v8.347c-15.062-.608-27.7-12.611-29.549-27.514a31.706,31.706,0,0,1,24.914-34.614c15.32-3.076,31.181,5.9,35.992,20.759a31.348,31.348,0,0,1-21.193,40.241A54.135,54.135,0,0,1,372.942,564.483Z" fill="#ff9500"/>
        <path id="Path_541" data-name="Path 541" d="M371.439,513.145a20.051,20.051,0,0,0-.28,40.1c10.73.11,20.02-8.93,20.12-19.57C391.379,522.235,382.649,513.2,371.439,513.145Zm11.74,26.16c-2.92,0-3.44.7-2.58,3.48.4,1.3.36,2.15-.85,2.98-1.29.88-2.22.59-3.34-.3-2.25-1.8-2.83-1.62-4.09.9-.5,1.02-.82,2.16-2.48,1.92a2.564,2.564,0,0,1-2.55-2.47c-.44-2.68-1.3-3.02-3.8-1.91-.53.24-1.04.52-1.54.76-2.89-1.81-2.94-1.97-1.57-4.84.89-1.87.53-2.62-1.51-3.3-1.1-.36-2.56-.16-2.62-2.07-.05-1.52.23-2.45,1.82-3.03,2.69-.97,2.84-1.66,1.31-3.99-1.4-2.14-1.4-2.14,1.11-4.58.57.17,1.2.34,1.83.54,2.63.8,3.37.32,3.57-2.38.07-1.1,0-2.07,1.48-2.48,1.53-.42,2.43-.29,3.28,1.18,1.55,2.66,2.24,2.71,4.44.46a2.234,2.234,0,0,1,3.07-.52,2.178,2.178,0,0,1,1.31,2.61c-.44,3.29-.21,3.55,2.94,3.41,1.25-.05,2.16-.01,2.78,1.43.66,1.52.1,2.27-.93,3.2-2.01,1.8-1.94,2.66.32,4.23,1.05.72,1.77,1.38,1.32,2.85A2.386,2.386,0,0,1,383.179,539.3Z" fill="#fff"/>
        <path id="Path_542" data-name="Path 542" d="M384.579,534.535c-2.26-1.57-2.33-2.43-.32-4.23,1.03-.93,1.59-1.68.93-3.2-.62-1.44-1.53-1.48-2.78-1.43-3.15.14-3.38-.12-2.94-3.41a2.178,2.178,0,0,0-1.31-2.61,2.234,2.234,0,0,0-3.07.52c-2.2,2.25-2.89,2.2-4.44-.46-.85-1.47-1.75-1.6-3.28-1.18-1.48.41-1.41,1.38-1.48,2.48-.2,2.7-.94,3.18-3.57,2.38-.63-.2-1.26-.37-1.83-.54-2.51,2.44-2.51,2.44-1.11,4.58,1.53,2.33,1.38,3.02-1.31,3.99-1.59.58-1.87,1.51-1.82,3.03.06,1.91,1.52,1.71,2.62,2.07,2.04.68,2.4,1.43,1.51,3.3-1.37,2.87-1.32,3.03,1.57,4.84.5-.24,1.01-.52,1.54-.76,2.5-1.11,3.36-.77,3.8,1.91a2.564,2.564,0,0,0,2.55,2.47c1.66.24,1.98-.9,2.48-1.92,1.26-2.52,1.84-2.7,4.09-.9,1.12.89,2.05,1.18,3.34.3,1.21-.83,1.25-1.68.85-2.98-.86-2.78-.34-3.48,2.58-3.48a2.386,2.386,0,0,0,2.72-1.92C386.349,535.915,385.629,535.255,384.579,534.535Zm-13.49,3.17a4.483,4.483,0,0,1,.17-8.96,4.358,4.358,0,0,1,4.32,4.56A4.47,4.47,0,0,1,371.089,537.705Z" fill="#ff9500"/>
        <path id="Path_543" data-name="Path 543" d="M366.828,533.142a4.267,4.267,0,0,1,4.435-4.394,4.349,4.349,0,0,1,4.315,4.561,4.46,4.46,0,0,1-4.487,4.392A4.3,4.3,0,0,1,366.828,533.142Z" fill="#fff"/>
      </g>
    </g>
  </g>
</svg>
